<?xml version="1.0" encoding="UTF-8"?>
<!-- Generator: visioncortex VTracer 0.6.4 -->
<svg version="1.1" xmlns="http://www.w3.org/2000/svg" width="371" height="427">
<path d="M0 0 C0.99 0.33 1.98 0.66 3 1 C5.14255793 0.61067144 5.14255793 0.61067144 7 0 C7.38671875 0.60328125 7.7734375 1.2065625 8.171875 1.828125 C10.85097342 5.93961267 13.39119304 9.64007628 17 13 C21.17338828 17.49441815 22 23.04707583 22 29 C21.34 29.33 20.68 29.66 20 30 C20.99 32.97 20.99 32.97 22 36 C20.68 36.33 19.36 36.66 18 37 C17.8453125 37.9590625 17.8453125 37.9590625 17.6875 38.9375 C17.3471875 39.9584375 17.3471875 39.9584375 17 41 C16.01 41.33 15.02 41.66 14 42 C14 43.32 14 44.64 14 46 C15.32 46 16.64 46 18 46 C18.18175781 46.60328125 18.36351562 47.2065625 18.55078125 47.828125 C19.90707585 52.14044629 21.14381928 55.45833591 24 59 C27.34267478 64.7053686 29.33337489 70.62760988 31 77 C31.29261719 78.11761719 31.58523437 79.23523438 31.88671875 80.38671875 C34.18925203 89.69062021 34.18925203 89.69062021 33 94 C32.41085627 97.51001894 31.82476078 101.01972995 31.28125 104.53710938 C30.46279601 109.44347983 29.11819859 113.49674316 27 118 C25.24481146 122.0445649 23.53415887 126.10249514 21.875 130.1875 C21.54242188 131.00605469 21.20984375 131.82460937 20.8671875 132.66796875 C20.08624086 134.76808201 19.49189503 136.81658838 19 139 C19.5775 138.34 20.155 137.68 20.75 137 C23 135 23 135 27 135 C27.33 134.01 27.66 133.02 28 132 C34.625 131.75 34.625 131.75 38 134 C38 134.66 38 135.32 38 136 C39.32 136 40.64 136 42 136 C42.33 136.99 42.66 137.98 43 139 C45.97 138.67 48.94 138.34 52 138 C51.67 139.32 51.34 140.64 51 142 C49.68 142.33 48.36 142.66 47 143 C48.98 143.33 50.96 143.66 53 144 C53.66 142.35 54.32 140.7 55 139 C55.99 139.33 56.98 139.66 58 140 C57.01 142.97 56.02 145.94 55 149 C55.66 149 56.32 149 57 149 C60.11997802 152.30350614 61 153.32409833 61 158 C61.99 158 62.98 158 64 158 C64 158.66 64 159.32 64 160 C65.1446875 160.3403125 65.1446875 160.3403125 66.3125 160.6875 C69.61208893 162.29892715 70.43956823 163.72309327 72 167 C74.07476871 173.95405237 73.40686304 181.23786098 71 188 C68.375 190.5 68.375 190.5 66 192 C66.78375 192.556875 67.5675 193.11375 68.375 193.6875 C71.99406134 196.8757207 72.84764569 199.45674185 73.31884766 204.22973633 C73.35026855 205.41849365 73.38168945 206.60725098 73.4140625 207.83203125 C73.45273437 209.12431641 73.49140625 210.41660156 73.53125 211.74804688 C73.56270014 213.10285995 73.59394761 214.45767775 73.625 215.8125 C73.6632175 217.18687272 73.7022714 218.56122244 73.7421875 219.93554688 C73.83635404 223.29022989 73.921982 226.64490893 74 230 C73.34 230 72.68 230 72 230 C72.16048828 231.30324219 72.16048828 231.30324219 72.32421875 232.6328125 C73.50584307 243.99165275 73.50584307 243.99165275 70 249 C69.2265625 250.3921875 69.2265625 250.3921875 68.4375 251.8125 C67 254 67 254 65 255 C63.87991379 260.24281318 63.99380293 265.14362572 64.375 270.4375 C64.41882813 271.14970703 64.46265625 271.86191406 64.5078125 272.59570312 C64.82371359 277.42635725 65.36165768 282.20161324 66 287 C66.66 287 67.32 287 68 287 C67.98259766 288.78857422 67.98259766 288.78857422 67.96484375 290.61328125 C67.95546408 292.17968594 67.94636407 293.74609231 67.9375 295.3125 C67.92912109 296.09818359 67.92074219 296.88386719 67.91210938 297.69335938 C67.90888672 298.45068359 67.90566406 299.20800781 67.90234375 299.98828125 C67.89710693 300.68477783 67.89187012 301.38127441 67.88647461 302.09887695 C67.93104009 304.22497968 67.93104009 304.22497968 69 307 C69.06802967 308.72795352 69.08495645 310.45835365 69.0625 312.1875 C69.05347656 313.08855469 69.04445313 313.98960937 69.03515625 314.91796875 C69.01775391 315.94857422 69.01775391 315.94857422 69 317 C69.66 317.33 70.32 317.66 71 318 C70.34 318 69.68 318 69 318 C69.185625 318.72832031 69.37125 319.45664062 69.5625 320.20703125 C70.02477975 323.15819215 69.73786379 324.82366615 69 327.6875 C67.64217387 334.39516107 68.22047355 340.74882912 68.70703125 347.515625 C69.12303251 353.34713818 69.09293794 359.1552365 69 365 C62.96859698 367.63873882 57.01237098 368.86094273 50.54882812 369.90942383 C47.08116756 370.49581753 44.97352651 371.01764899 42 373 C40.88625 372.835 39.7725 372.67 38.625 372.5 C34.62636779 371.94846452 33.61216164 372.52451327 30 374 C19.38560503 376.10148855 8.83719466 376.25566212 -1.9375 376.125 C-3.41080107 376.11493003 -4.88410896 376.10581142 -6.35742188 376.09765625 C-9.90509384 376.07600687 -13.45250022 376.04170887 -17 376 C-17.25910156 376.79277344 -17.51820313 377.58554687 -17.78515625 378.40234375 C-19 381 -19 381 -22.4375 382.5625 C-23.51257813 382.89894531 -23.51257813 382.89894531 -24.609375 383.2421875 C-27.04972913 383.97404398 -27.04972913 383.97404398 -29.515625 385.0703125 C-36.79453289 388.11383246 -43.16699313 388.448312 -51 388 C-51.62890625 385.6484375 -51.62890625 385.6484375 -52 383 C-49.9375 380.625 -49.9375 380.625 -47 378 C-45.87828803 376.74462609 -44.77413728 375.47335412 -43.6875 374.1875 C-43.17574219 373.58292969 -42.66398437 372.97835938 -42.13671875 372.35546875 C-41.76160156 371.90816406 -41.38648438 371.46085937 -41 371 C-43.2554042 370.19283591 -43.2554042 370.19283591 -46 370 C-48.59007027 371.28713599 -48.59007027 371.28713599 -51 373.25 C-59.92561983 380 -59.92561983 380 -67 380 C-67.33 384.95 -67.66 389.9 -68 395 C-68.99 395 -69.98 395 -71 395 C-71.10001191 389.87716765 -71.0379156 384.84883378 -70.5 379.75 C-69.84197189 373.18851967 -69.68451647 366.58803835 -70 360 C-70.33 359.67 -70.66 359.34 -71 359 C-71.04080783 357.00041636 -71.04254356 354.99954746 -71 353 C-73.64 353.66 -76.28 354.32 -79 355 C-78.96447021 355.75095947 -78.92894043 356.50191895 -78.89233398 357.27563477 C-78.73394887 360.70431543 -78.58563876 364.13336198 -78.4375 367.5625 C-78.38142578 368.74392578 -78.32535156 369.92535156 -78.26757812 371.14257812 C-78.02517365 376.91180462 -77.87484316 382.32420883 -79 388 C-79.66 388 -80.32 388 -81 388 C-81.06058594 387.0821875 -81.12117188 386.164375 -81.18359375 385.21875 C-81.26738281 383.9915625 -81.35117188 382.764375 -81.4375 381.5 C-81.51871094 380.2934375 -81.59992188 379.086875 -81.68359375 377.84375 C-82.00947368 373.88491235 -82.50730579 369.94155371 -83 366 C-83.33 376.23 -83.66 386.46 -84 397 C-84.99 396.67 -85.98 396.34 -87 396 C-87.66 391.38 -88.32 386.76 -89 382 C-89.66 382 -90.32 382 -91 382 C-91.66 383.65 -92.32 385.3 -93 387 C-93.94875 386.79375 -94.8975 386.5875 -95.875 386.375 C-96.90625 386.25125 -97.9375 386.1275 -99 386 C-99.66 386.66 -100.32 387.32 -101 388 C-101.99 388 -102.98 388 -104 388 C-103.835 387.38125 -103.67 386.7625 -103.5 386.125 C-102.92365356 384.03936614 -102.92365356 384.03936614 -103 382 C-105.97 382.33 -108.94 382.66 -112 383 C-112 382.34 -112 381.68 -112 381 C-112.33 380.67 -112.66 380.34 -113 380 C-113.40844572 377.32241139 -113.73874087 374.69146201 -114 372 C-114.12375 370.906875 -114.2475 369.81375 -114.375 368.6875 C-114.25125 367.800625 -114.1275 366.91375 -114 366 C-111.5 364.25 -111.5 364.25 -109 363 C-109 362.34 -109 361.68 -109 361 C-108.01 360.67 -107.02 360.34 -106 360 C-106 356.37 -106 352.74 -106 349 C-107.32 349.33 -108.64 349.66 -110 350 C-110.99 350 -111.98 350 -113 350 C-114.02019573 350.9793879 -115.02149805 351.97895449 -116 353 C-116.66 353 -117.32 353 -118 353 C-118 352.34 -118 351.68 -118 351 C-118.886875 351.350625 -119.77375 351.70125 -120.6875 352.0625 C-124.07480539 353.02117134 -125.69567599 353.03850183 -129 352 C-130 351 -130 351 -130.09765625 348.93359375 C-130.08605469 348.10988281 -130.07445312 347.28617187 -130.0625 346.4375 C-130.05347656 345.61121094 -130.04445313 344.78492188 -130.03515625 343.93359375 C-130.02355469 343.29550781 -130.01195312 342.65742188 -130 342 C-129.01 341.67 -128.02 341.34 -127 341 C-127.33 342.65 -127.66 344.3 -128 346 C-127.34 345.67 -126.68 345.34 -126 345 C-126 343.35 -126 341.7 -126 340 C-124.68 340 -123.36 340 -122 340 C-122 339.34 -122 338.68 -122 338 C-122.66 338 -123.32 338 -124 338 C-124 335.36 -124 332.72 -124 330 C-124.928125 329.5359375 -124.928125 329.5359375 -125.875 329.0625 C-127.25 328.375 -128.625 327.6875 -130 327 C-130 326.34 -130 325.68 -130 325 C-130.99 325 -131.98 325 -133 325 C-133.33 322.69 -133.66 320.38 -134 318 C-134.804375 317.855625 -135.60875 317.71125 -136.4375 317.5625 C-139 317 -139 317 -140 316 C-139.979375 315.05125 -139.95875 314.1025 -139.9375 313.125 C-139.72305197 309.83264113 -139.72305197 309.83264113 -142 307 C-142.89348779 302.14695053 -142.52417774 298.13139084 -139.75 294 C-137.7119285 291.28257133 -136.26809591 290.7162033 -133 290 C-132.97494385 289.43490723 -132.9498877 288.86981445 -132.92407227 288.28759766 C-132.80820044 285.73316258 -132.68543463 283.1791045 -132.5625 280.625 C-132.50352539 279.29082031 -132.50352539 279.29082031 -132.44335938 277.9296875 C-132.40146484 277.07890625 -132.35957031 276.228125 -132.31640625 275.3515625 C-132.27974854 274.56604004 -132.24309082 273.78051758 -132.20532227 272.97119141 C-132 271 -132 271 -131 269 C-130.34 269 -129.68 269 -129 269 C-128.731875 268.360625 -128.46375 267.72125 -128.1875 267.0625 C-127 265 -127 265 -124 264 C-123.32613515 258.56094798 -122.97287577 253.29588699 -123.125 247.8125 C-123.1842478 242.70402319 -122.47398 239.45316399 -120 235 C-119 234 -119 234 -115.4375 233.9375 C-114.303125 233.958125 -113.16875 233.97875 -112 234 C-112 234.66 -112 235.32 -112 236 C-110.35 236.33 -108.7 236.66 -107 237 C-107.33 237.66 -107.66 238.32 -108 239 C-111.0625 239.625 -111.0625 239.625 -114 240 C-113.83628906 240.64324219 -113.67257813 241.28648437 -113.50390625 241.94921875 C-112.84665324 245.92840171 -112.893647 249.7881437 -112.9375 253.8125 C-112.94201172 254.60076172 -112.94652344 255.38902344 -112.95117188 256.20117188 C-112.96288688 258.13414761 -112.98082002 260.06708393 -113 262 C-110.69 262.66 -108.38 263.32 -106 264 C-105.731875 263.360625 -105.46375 262.72125 -105.1875 262.0625 C-104 260 -104 260 -101 259 C-101 251.41 -101 243.82 -101 236 C-96.64467851 233.82233925 -95.53374042 233.96960445 -91 235 C-90.38752166 240.65448753 -89.97345345 246.06505667 -90.3125 251.75 C-90.37622464 255.83416994 -89.92617109 257.69641901 -87.125 260.6875 C-86.59132812 261.14511719 -86.05765625 261.60273438 -85.5078125 262.07421875 C-80.34257573 268.67126985 -81.77128928 278.64989648 -81.875 286.5 C-81.88402344 287.799375 -81.89304688 289.09875 -81.90234375 290.4375 C-81.92578184 293.62508005 -81.9616485 296.8125645 -82 300 C-78.04 300.99 -74.08 301.98 -70 303 C-69.97296438 300.41659616 -69.95314389 297.83347692 -69.9375 295.25 C-69.92493164 294.15558594 -69.92493164 294.15558594 -69.91210938 293.0390625 C-69.85141821 289.05018226 -69.85141821 289.05018226 -70.48632812 285.13330078 C-71.14550429 282.3957146 -71.21936156 279.7906453 -71.31640625 276.9765625 C-71.35830078 275.78933594 -71.40019531 274.60210937 -71.44335938 273.37890625 C-71.48267578 272.14011719 -71.52199219 270.90132813 -71.5625 269.625 C-71.60568359 268.42488281 -71.64886719 267.22476562 -71.69335938 265.98828125 C-71.97534333 257.65408893 -72.05032761 249.33840588 -72 241 C-72.99 241 -73.98 241 -75 241 C-74.67 240.01 -74.34 239.02 -74 238 C-73.67 238 -73.34 238 -73 238 C-71.97629451 231.06155168 -72.20559557 224.97310555 -73 218 C-73.33 221.3 -73.66 224.6 -74 228 C-75.65 228.33 -77.3 228.66 -79 229 C-79.66 227.02 -80.32 225.04 -81 223 C-81.33 224.65 -81.66 226.3 -82 228 C-82.66 228 -83.32 228 -84 228 C-84 227.01 -84 226.02 -84 225 C-85.65 225.33 -87.3 225.66 -89 226 C-89.33 226.99 -89.66 227.98 -90 229 C-92.34058637 226.87219421 -93.70700306 224.88437779 -95 222 C-95.99 222.33 -96.98 222.66 -98 223 C-98.73323796 225.01508358 -98.73323796 225.01508358 -99 227 C-99.66 227 -100.32 227 -101 227 C-101 225.35 -101 223.7 -101 222 C-102.98 222.99 -102.98 222.99 -105 224 C-106 223 -106 223 -106.09765625 220.49609375 C-106.08605469 219.48675781 -106.07445312 218.47742188 -106.0625 217.4375 C-106.05347656 216.42558594 -106.04445312 215.41367188 -106.03515625 214.37109375 C-106.02355469 213.58863281 -106.01195312 212.80617187 -106 212 C-106.66 212 -107.32 212 -108 212 C-108.02698189 213.62490954 -108.04638757 215.24994633 -108.0625 216.875 C-108.07410156 217.77992188 -108.08570313 218.68484375 -108.09765625 219.6171875 C-108.16249257 222.0168585 -108.16249257 222.0168585 -107 224 C-106.960008 225.99960012 -106.95653201 228.00047242 -107 230 C-107.66 230.33 -108.32 230.66 -109 231 C-109.33 229.68 -109.66 228.36 -110 227 C-110.66 227 -111.32 227 -112 227 C-112 225.02 -112 223.04 -112 221 C-112.66 221 -113.32 221 -114 221 C-114.33 221.66 -114.66 222.32 -115 223 C-116.65 223 -118.3 223 -120 223 C-120 222.01 -120 221.02 -120 220 C-120.66 220 -121.32 220 -122 220 C-122.33 219.01 -122.66 218.02 -123 217 C-123.66 217.33 -124.32 217.66 -125 218 C-125.66 217.67 -126.32 217.34 -127 217 C-127.33 218.32 -127.66 219.64 -128 221 C-128.66 221 -129.32 221 -130 221 C-130.33 219.35 -130.66 217.7 -131 216 C-131.61875 215.855625 -132.2375 215.71125 -132.875 215.5625 C-135 215 -135 215 -137 214 C-137 211.69 -137 209.38 -137 207 C-135.68 207 -134.36 207 -133 207 C-130.77604029 206.98854537 -128.55208213 206.97678913 -126.328125 206.96484375 C-124.32552196 206.95791775 -122.32291868 206.95101717 -120.3203125 206.94506836 C-118.94725778 206.94004894 -117.57420838 206.93323201 -116.20117188 206.92456055 C-103.28566847 206.8453148 -103.28566847 206.8453148 -98.921875 207.5 C-92.95512739 208.26070089 -87.00767542 208.10373536 -81 208.0625 C-79.74832031 208.05798828 -78.49664062 208.05347656 -77.20703125 208.04882812 C-74.13797059 208.03711415 -71.06901093 208.02071073 -68 208 C-67.67 206.68 -67.34 205.36 -67 204 C-67.94391602 204.01047363 -68.88783203 204.02094727 -69.86035156 204.03173828 C-119.59703358 204.533544 -119.59703358 204.533544 -136 201 C-136 200.01 -136 199.02 -136 198 C-134.68 197.67 -133.36 197.34 -132 197 C-133.32 196.67 -134.64 196.34 -136 196 C-135.67 195.01 -135.34 194.02 -135 193 C-134.34 193 -133.68 193 -133 193 C-133 192.34 -133 191.68 -133 191 C-130.69 190.67 -128.38 190.34 -126 190 C-126 188.02 -126 186.04 -126 184 C-129.63 184 -133.26 184 -137 184 C-137.33 183.01 -137.66 182.02 -138 181 C-136.35 180.67 -134.7 180.34 -133 180 C-133.2784375 179.071875 -133.2784375 179.071875 -133.5625 178.125 C-134 176 -134 176 -133 174 C-133.66 174 -134.32 174 -135 174 C-135 173.01 -135 172.02 -135 171 C-134.34 170.67 -133.68 170.34 -133 170 C-133.66 169.67 -134.32 169.34 -135 169 C-135 168 -135 167 -135 166 C-137.1385485 163.8614515 -138.13275314 163.57344937 -141 163 C-141.185625 161.63875 -141.185625 161.63875 -141.375 160.25 C-141.92109677 157.41029677 -142.57263803 155.47409409 -144 153 C-143.01 152.01 -143.01 152.01 -142 151 C-139.875 151.375 -139.875 151.375 -138 152 C-138 151.01 -138 150.02 -138 149 C-137.34 149 -136.68 149 -136 149 C-136 148.01 -136 147.02 -136 146 C-136.99 146 -137.98 146 -139 146 C-138.2578125 144.05078125 -138.2578125 144.05078125 -137 142 C-128.54081656 139.10422144 -118.97816723 141.95439259 -111 145 C-110.34 145.33 -109.68 145.66 -109 146 C-108.505 159.86 -108.505 159.86 -108 174 C-106.68 173.67 -105.36 173.34 -104 173 C-104 173.66 -104 174.32 -104 175 C-103.01 174.34 -102.02 173.68 -101 173 C-101.66 172.01 -102.32 171.02 -103 170 C-101.906875 169.690625 -100.81375 169.38125 -99.6875 169.0625 C-97.44592006 168.41662103 -95.2130649 167.7376883 -93 167 C-93 165.35 -93 163.7 -93 162 C-92.01 162 -91.02 162 -90 162 C-90 162.99 -90 163.98 -90 165 C-89.566875 164.505 -89.13375 164.01 -88.6875 163.5 C-87 162 -87 162 -84 162 C-84 162.66 -84 163.32 -84 164 C-82.54166642 165.62514468 -82.54166642 165.62514468 -81 167 C-78.81509993 164.32357511 -78.81509993 164.32357511 -79 162 C-80.2065625 161.5978125 -80.2065625 161.5978125 -81.4375 161.1875 C-82.283125 160.795625 -83.12875 160.40375 -84 160 C-84.33 159.01 -84.66 158.02 -85 157 C-87.95784231 155.77606525 -89.99727245 156.03483757 -93 157 C-93 157.66 -93 158.32 -93 159 C-94.32 159.33 -95.64 159.66 -97 160 C-96.979375 159.030625 -96.95875 158.06125 -96.9375 157.0625 C-96.64381501 154.12534105 -96.64381501 154.12534105 -98 153 C-98.495 155.97 -98.495 155.97 -99 159 C-99.66 159 -100.32 159 -101 159 C-101 155.37 -101 151.74 -101 148 C-102.36125 147.4225 -103.7225 146.845 -105.125 146.25 C-113.80851341 142.34851504 -121.72464771 136.70071695 -126 128 C-126.66 127.67 -127.32 127.34 -128 127 C-130.16025592 122.19943129 -130.9577692 117.19110905 -130 112 C-127.12748771 108.35113304 -124.04456378 105.28528797 -119.3125 104.625 C-111.05020611 105.56035403 -104.39855633 110.92777767 -99 117 C-97.4076775 119.4466555 -95.96511497 121.97577345 -94.5 124.5 C-91.94952459 129.02311864 -91.94952459 129.02311864 -87.8203125 131.93359375 C-85.40160064 131.93789751 -83.35303544 131.55547066 -81 131 C-79.16936666 130.78775266 -77.3356186 130.6011206 -75.5 130.4375 C-74.6646875 130.33308594 -73.829375 130.22867188 -72.96875 130.12109375 C-70.40721207 130.01660997 -68.24416681 130.18378041 -65.71875 130.515625 C-61.03263507 131.08870837 -56.67681776 130.86395922 -52 130.3125 C-51.21254395 130.22436035 -50.42508789 130.1362207 -49.61376953 130.04541016 C-44.54764383 129.40177595 -40.43224741 128.24224119 -35.90234375 125.8203125 C-32.59393284 124.39368767 -29.54559943 124.74213822 -26 125 C-26.32613281 124.48050781 -26.65226562 123.96101563 -26.98828125 123.42578125 C-27.42527344 122.72839844 -27.86226563 122.03101563 -28.3125 121.3125 C-28.95638672 120.28576172 -28.95638672 120.28576172 -29.61328125 119.23828125 C-30.07089844 118.49964844 -30.52851563 117.76101562 -31 117 C-31.515625 116.20335938 -32.03125 115.40671875 -32.5625 114.5859375 C-37.19409681 106.25409758 -38.46479848 95.75456547 -36.125 86.5625 C-32.32320054 78.94071065 -25.66607689 72.47684763 -18 69 C-17.2575 68.443125 -16.515 67.88625 -15.75 67.3125 C-14 66 -14 66 -12 66 C-12 65.34 -12 64.68 -12 64 C-10.70766393 62.62689293 -9.37562854 61.28965176 -8 60 C-9.26457031 59.96132812 -9.26457031 59.96132812 -10.5546875 59.921875 C-12.19824219 59.83679688 -12.19824219 59.83679688 -13.875 59.75 C-14.96554688 59.70359375 -16.05609375 59.6571875 -17.1796875 59.609375 C-20 59 -20 59 -21.375 57.125 C-22.09940076 54.66203741 -22.14190143 52.55422575 -22 50 C-23.98 49.505 -23.98 49.505 -26 49 C-26 48.34 -26 47.68 -26 47 C-27.65 47 -29.3 47 -31 47 C-32.32902947 43.0129116 -31.64991115 39.81459881 -31.15625 35.69140625 C-31.00940288 33.16196467 -31.23086556 31.39223432 -32 29 C-32.9075 29.20625 -33.815 29.4125 -34.75 29.625 C-38.21546863 30.02486177 -39.09470856 29.65475295 -42 28 C-42.05422947 26.5629191 -42.09289723 25.12524538 -42.125 23.6875 C-42.14820313 22.88699219 -42.17140625 22.08648438 -42.1953125 21.26171875 C-42 19 -42 19 -40 16 C-39.34 16 -38.68 16 -38 16 C-37.67 15.01 -37.34 14.02 -37 13 C-36.01 13 -35.02 13 -34 13 C-34.33 9.7 -34.66 6.4 -35 3 C-30.74100702 0.87050351 -28.65688422 0.74598813 -24 1 C-23.01 1.33 -22.02 1.66 -21 2 C-20.67 1.67 -20.34 1.34 -20 1 C-18.33382885 0.95936168 -16.66611905 0.957279 -15 1 C-15 1.66 -15 2.32 -15 3 C-14.01 3.495 -14.01 3.495 -13 4 C-13 4.99 -13 5.98 -13 7 C-12.01 7 -11.02 7 -10 7 C-9.01 7 -8.02 7 -7 7 C-7 7.99 -7 8.98 -7 10 C-7.66 10 -8.32 10 -9 10 C-9 10.99 -9 11.98 -9 13 C-8.01 12.34 -7.02 11.68 -6 11 C-4.68 11 -3.36 11 -2 11 C-2.33 11.99 -2.66 12.98 -3 14 C-5.0625 14.6875 -5.0625 14.6875 -7 15 C-5.60804085 17.7839183 -3.84424221 17.97898997 -1 19 C-1.0309375 17.329375 -1.0309375 17.329375 -1.0625 15.625 C-1 12 -1 12 0 10 C-0.27942455 8.32345271 -0.60828247 6.65391846 -1 5 C-1.66 5 -2.32 5 -3 5 C-2.625 3.0625 -2.625 3.0625 -2 1 C-1.34 0.67 -0.68 0.34 0 0 Z M-27 4 C-27 4.66 -27 5.32 -27 6 C-25.35 5.67 -23.7 5.34 -22 5 C-22 4.67 -22 4.34 -22 4 C-23.65 4 -25.3 4 -27 4 Z M-18 4 C-18 4.99 -18 5.98 -18 7 C-17.34 6.01 -16.68 5.02 -16 4 C-16.66 4 -17.32 4 -18 4 Z M-33 5 C-33 5.66 -33 6.32 -33 7 C-32.34 7 -31.68 7 -31 7 C-31 6.34 -31 5.68 -31 5 C-31.66 5 -32.32 5 -33 5 Z M-20 7 C-20.99 7.99 -21.98 8.98 -23 10 C-21.68 10.33 -20.36 10.66 -19 11 C-19.33 9.68 -19.66 8.36 -20 7 Z M-15 7 C-15.99 7.66 -16.98 8.32 -18 9 C-17.01 9.33 -16.02 9.66 -15 10 C-15 9.01 -15 8.02 -15 7 Z M2 9 C2.99 10.32 3.98 11.64 5 13 C5 11.68 5 10.36 5 9 C4.01 9 3.02 9 2 9 Z M-14 12 C-12.02 12.99 -12.02 12.99 -10 14 C-10 13.34 -10 12.68 -10 12 C-11.32 12 -12.64 12 -14 12 Z M-11 17 C-11 17.66 -11 18.32 -11 19 C-10.01 18.67 -9.02 18.34 -8 18 C-8.99 17.67 -9.98 17.34 -11 17 Z M-7 19 C-6 21 -6 21 -6 21 Z M-21 23 C-21 23.66 -21 24.32 -21 25 C-22.65 25 -24.3 25 -26 25 C-25.67 27.64 -25.34 30.28 -25 33 C-24.01 33.33 -23.02 33.66 -22 34 C-22.495 34.763125 -22.99 35.52625 -23.5 36.3125 C-25.24368308 38.92363751 -25.24368308 38.92363751 -25 42 C-25.66 40.02 -26.32 38.04 -27 36 C-28.76462683 39.08809695 -29 40.23312136 -29 44 C-27.02 44 -25.04 44 -23 44 C-23 44.99 -23 45.98 -23 47 C-21.35 47 -19.7 47 -18 47 C-18 49.64 -18 52.28 -18 55 C-14.7 54.67 -11.4 54.34 -8 54 C-8 53.34 -8 52.68 -8 52 C-7.278125 51.896875 -6.55625 51.79375 -5.8125 51.6875 C-2.70853676 50.92875343 -0.70954115 49.677335 2 48 C4.31015137 46.93414728 6.64654713 45.96906883 9 45 C5.98112756 41.51668565 3.43090471 40.20842856 -1 39 C-1 39.66 -1 40.32 -1 41 C-2.65 40.67 -4.3 40.34 -6 40 C-5.814375 39.195625 -5.62875 38.39125 -5.4375 37.5625 C-5.293125 36.716875 -5.14875 35.87125 -5 35 C-6.18424326 33.58422523 -6.18424326 33.58422523 -9.5625 33.9375 C-10.696875 33.958125 -11.83125 33.97875 -13 34 C-13 33.34 -13 32.68 -13 32 C-14.65 32 -16.3 32 -18 32 C-18 31.01 -18 30.02 -18 29 C-18.66 29 -19.32 29 -20 29 C-20 27.02 -20 25.04 -20 23 C-20.33 23 -20.66 23 -21 23 Z M-5 32 C-5.33 32.66 -5.66 33.32 -6 34 C-5.34 34 -4.68 34 -4 34 C-4.33 33.34 -4.66 32.68 -5 32 Z M-4 34 C-4 34.66 -4 35.32 -4 36 C-3.34 35.67 -2.68 35.34 -2 35 C-2.66 34.67 -3.32 34.34 -4 34 Z M-33 101 C-33 101.66 -33 102.32 -33 103 C-32.01 103 -31.02 103 -30 103 C-30 103.99 -30 104.98 -30 106 C-29.34 106.33 -28.68 106.66 -28 107 C-27.01 108.485 -27.01 108.485 -26 110 C-25.01 110.33 -24.02 110.66 -23 111 C-22.34 110.34 -21.68 109.68 -21 109 C-21.18757062 105.17435335 -21.18757062 105.17435335 -23 102 C-24.68183948 101.76712992 -26.3712416 101.58735834 -28.0625 101.4375 C-28.98160156 101.35371094 -29.90070313 101.26992187 -30.84765625 101.18359375 C-31.91306641 101.09271484 -31.91306641 101.09271484 -33 101 Z M-17 114 C-17.66 117.96 -18.32 121.92 -19 126 C-24.01617782 127.52580866 -28.95434634 128.59431675 -34.125 129.4375 C-39.29607311 130.29674344 -44.31102122 131.31113654 -49.375 132.6875 C-56.40567075 134.39003382 -63.24995658 134.16928561 -70.4296875 134.0390625 C-75.99123962 133.94880011 -81.4750734 134.38244333 -87 135 C-84.49751135 136.66832577 -82.58850813 137.62381674 -79.8125 138.625 C-79.09707031 138.88539063 -78.38164063 139.14578125 -77.64453125 139.4140625 C-77.10183594 139.60742188 -76.55914062 139.80078125 -76 140 C-76 140.99 -76 141.98 -76 143 C-77.98 143.99 -77.98 143.99 -80 145 C-80 145.66 -80 146.32 -80 147 C-77.525 146.505 -77.525 146.505 -75 146 C-75 145.34 -75 144.68 -75 144 C-74.01 143.67 -73.02 143.34 -72 143 C-72 142.34 -72 141.68 -72 141 C-71.34 140.67 -70.68 140.34 -70 140 C-70.66 139.67 -71.32 139.34 -72 139 C-72 138.34 -72 137.68 -72 137 C-71.01 137 -70.02 137 -69 137 C-68.67 137.99 -68.34 138.98 -68 140 C-66.68 140 -65.36 140 -64 140 C-63.67 140.66 -63.34 141.32 -63 142 C-63 141.34 -63 140.68 -63 140 C-61.68 140 -60.36 140 -59 140 C-59.33 140.99 -59.66 141.98 -60 143 C-56.77032904 143.89094371 -53.97722796 144.02571653 -50.625 143.9375 C-48 144 -48 144 -45.3125 144.5625 C-42.98465993 145.24469885 -42.98465993 145.24469885 -41 144 C-40.505 144.99 -40.505 144.99 -40 146 C-37.36 146 -34.72 146 -32 146 C-32 145.34 -32 144.68 -32 144 C-31.34 144 -30.68 144 -30 144 C-30 144.66 -30 145.32 -30 146 C-29.01 146 -28.02 146 -27 146 C-27 145.34 -27 144.68 -27 144 C-26.01 144.33 -25.02 144.66 -24 145 C-21.99124558 144.72428861 -19.98821313 144.39764263 -18 144 C-20.64738916 142.5393715 -21.89448334 142 -25 142 C-25 141.34 -25 140.68 -25 140 C-22.03 139.67 -19.06 139.34 -16 139 C-15.01 140.485 -15.01 140.485 -14 142 C-13.67 141.34 -13.34 140.68 -13 140 C-12.23816406 140.0721875 -11.47632813 140.144375 -10.69140625 140.21875 C-7.96884821 140.26827851 -7.96884821 140.26827851 -6.33984375 138.53125 C-0.27002144 130.78119639 -0.27002144 130.78119639 1.59765625 121.765625 C1.40042969 121.18296875 1.20320313 120.6003125 1 120 C-0.299375 119.938125 -1.59875 119.87625 -2.9375 119.8125 C-8.50762277 119.22896333 -12.27857302 116.92278813 -17 114 Z M-22 121 C-21 123 -21 123 -21 123 Z M32 134 C31.34 134.66 30.68 135.32 30 136 C31.32 136 32.64 136 34 136 C34.33 136.66 34.66 137.32 35 138 C35 136.68 35 135.36 35 134 C34.01 134 33.02 134 32 134 Z M-73.4375 147.5 C-73.953125 148.325 -74.46875 149.15 -75 150 C-74.01 151.98 -73.02 153.96 -72 156 C-69.74754119 153.31158141 -68.11786042 151.35358125 -67 148 C-66.01 147.67 -65.02 147.34 -64 147 C-64 146.34 -64 145.68 -64 145 C-69.33244043 144.39524561 -69.33244043 144.39524561 -73.4375 147.5 Z M26 145 C26.98562757 148.31529273 27.65447419 149.74949379 30.5 151.8125 C32.83980938 153.14301894 32.83980938 153.14301894 35 153 C35 151.68 35 150.36 35 149 C30.545 147.02 30.545 147.02 26 145 Z M49 147 C50 150 50 150 50 150 Z M52 147 C53 150 53 150 53 150 Z M-19 149 C-18.67 150.32 -18.34 151.64 -18 153 C-16.68 151.35 -15.36 149.7 -14 148 C-16.21081851 147.89459074 -16.21081851 147.89459074 -19 149 Z M-95 150 C-94 152 -94 152 -94 152 Z M-29.0625 149.5 C-32.35791949 149.91846597 -34.78920091 150.01290607 -38.0625 149.8125 C-44.41409285 150.1149568 -49.30945128 151.15219093 -53.6875 155.9375 C-54.8321875 157.4534375 -54.8321875 157.4534375 -56 159 C-58 160.33333333 -60 161.66666667 -62 163 C-63.38868516 165.10039331 -63.38868516 165.10039331 -64 167 C-59.35413108 166.51515724 -59.35413108 166.51515724 -55 165 C-55 163.35 -55 161.7 -55 160 C-54.34 160 -53.68 160 -53 160 C-53 159.34 -53 158.68 -53 158 C-52.443125 158.185625 -51.88625 158.37125 -51.3125 158.5625 C-48.600867 159.07551165 -46.65628961 158.6640724 -44 158 C-43.67 156.68 -43.34 155.36 -43 154 C-42.67 155.32 -42.34 156.64 -42 158 C-42.99 158.495 -42.99 158.495 -44 159 C-43.67 160.32 -43.34 161.64 -43 163 C-40.69 163.33 -38.38 163.66 -36 164 C-35.34 163.01 -34.68 162.02 -34 161 C-34.66 161 -35.32 161 -36 161 C-36 159.68 -36 158.36 -36 157 C-35.01 157 -34.02 157 -33 157 C-33 158.98 -33 160.96 -33 163 C-29.535 161.515 -29.535 161.515 -26 160 C-25.505 160.99 -25.505 160.99 -25 162 C-24.49487756 160.39743892 -23.99608373 158.79288208 -23.5 157.1875 C-23.2215625 156.29417969 -22.943125 155.40085938 -22.65625 154.48046875 C-21.87211649 151.94426605 -21.87211649 151.94426605 -22 149 C-24.44963554 149 -26.64711351 149.17493864 -29.0625 149.5 Z M-77 150 C-77.66 150.66 -78.32 151.32 -79 152 C-78.01 152 -77.02 152 -76 152 C-76.33 151.34 -76.66 150.68 -77 150 Z M-5 152 C-8.05076843 155.03655958 -8.05076843 155.03655958 -9 159 C-9.66 159 -10.32 159 -11 159 C-11 159.66 -11 160.32 -11 161 C-11.66 161 -12.32 161 -13 161 C-13.33 160.34 -13.66 159.68 -14 159 C-14 159.66 -14 160.32 -14 161 C-14.99 160.67 -15.98 160.34 -17 160 C-17 163.3 -17 166.6 -17 170 C-17.66 170 -18.32 170 -19 170 C-21.10232344 172.8684413 -21.10232344 172.8684413 -22 176 C-22.66 176 -23.32 176 -24 176 C-24 176.66 -24 177.32 -24 178 C-24.66 178 -25.32 178 -26 178 C-26.33 176.68 -26.66 175.36 -27 174 C-27.33 176.97 -27.66 179.94 -28 183 C-26.73816895 183.01981934 -25.47633789 183.03963867 -24.17626953 183.06005859 C-19.50581508 183.13598765 -14.8356774 183.22472412 -10.16552734 183.31738281 C-8.14215334 183.35572521 -6.11870994 183.39056871 -4.09521484 183.421875 C-1.19082797 183.46741169 1.71307894 183.52542409 4.6171875 183.5859375 C5.52556366 183.59748871 6.43393982 183.60903992 7.36984253 183.62094116 C8.63092331 183.6507457 8.63092331 183.6507457 9.91748047 183.68115234 C11.03000687 183.70113785 11.03000687 183.70113785 12.16500854 183.7215271 C14 184 14 184 16 186 C15.625 188.125 15.625 188.125 15 190 C13.0625 190.5625 13.0625 190.5625 11 191 C10.67 190.67 10.34 190.34 10 190 C2.26180756 188.69336338 -5.24285994 189.12004519 -13 190 C-10.32614033 191.37879611 -7.93550967 192.33714298 -5 193 C-4.01 193.33 -3.02 193.66 -2 194 C-2.33 194.99 -2.66 195.98 -3 197 C-3.99 197.33 -4.98 197.66 -6 198 C-6 197.34 -6 196.68 -6 196 C-17.86239848 195.42106452 -17.86239848 195.42106452 -29 199 C-30.7344511 201.52425356 -30.7344511 201.52425356 -31 205 C-31.17789063 205.79664063 -31.35578125 206.59328125 -31.5390625 207.4140625 C-32.56081127 212.14135349 -33.09575699 216.60177178 -33 221.4375 C-32.90452322 226.7569206 -33.31073849 231.90703067 -33.875 237.1875 C-34.72850472 245.20130517 -35.47385453 253.21703935 -36.125 261.25 C-36.21249512 262.29696045 -36.29999023 263.3439209 -36.39013672 264.42260742 C-36.83435667 269.96999395 -37.09319261 275.43506965 -37 281 C-36.01 280.67 -35.02 280.34 -34 280 C-34 280.66 -34 281.32 -34 282 C-34.99 282.33 -35.98 282.66 -37 283 C-36.34 283 -35.68 283 -35 283 C-35.20496094 283.70125 -35.40992188 284.4025 -35.62109375 285.125 C-37.22367397 290.76853609 -38.44894013 296.15876543 -39 302 C-26.61921821 308.17042189 -15.74481295 313.00890378 -2 309 C-2 308.34 -2 307.68 -2 307 C-1.4225 306.9175 -0.845 306.835 -0.25 306.75 C2.6159304 305.79468987 3.9990764 304.21530827 6 302 C5.34 302 4.68 302 4 302 C4 301.01 4 300.02 4 299 C2.35 299.33 0.7 299.66 -1 300 C-0.67 298.68 -0.34 297.36 0 296 C-0.66 296 -1.32 296 -2 296 C-2 295.34 -2 294.68 -2 294 C-1.01 294 -0.02 294 1 294 C1 293.01 1 292.02 1 291 C1.66 290.67 2.32 290.34 3 290 C3 288.68 3 287.36 3 286 C2.34 286 1.68 286 1 286 C1.433125 285.649375 1.86625 285.29875 2.3125 284.9375 C4.63814869 282.26731076 5.64110358 279.24953491 7 276 C7.66 275.34 8.32 274.68 9 274 C9.66 275.32 10.32 276.64 11 278 C13.45579697 274.31435916 13.45579697 274.31435916 14 270 C14.66 270 15.32 270 16 270 C16.33 270.99 16.66 271.98 17 273 C17.99 270.36 18.98 267.72 20 265 C19.01 265 18.02 265 17 265 C17.75 262.5625 17.75 262.5625 19 260 C21.125 259.1875 21.125 259.1875 23 259 C23.185625 257.96552734 23.185625 257.96552734 23.375 256.91015625 C24.06882208 253.67954718 25.00681029 250.58868648 26 247.4375 C27.37048472 243.11355136 27.37048472 243.11355136 28.55859375 238.73828125 C29.08901387 236.64945867 29.98519795 234.89429716 31 233 C31.99 233 32.98 233 34 233 C34.67493341 230.77332235 35.33963044 228.54354023 36 226.3125 C36.556875 224.45044922 36.556875 224.45044922 37.125 222.55078125 C37.87703457 219.4989981 38.19034899 217.11101638 38 214 C37.4225 214.721875 36.845 215.44375 36.25 216.1875 C34.78028541 218.02464324 33.28111119 219.83870361 31.75 221.625 C29.70340048 223.9108436 29.70340048 223.9108436 30 227 C29.01 227 28.02 227 27 227 C27.495 226.05125 27.99 225.1025 28.5 224.125 C30.14424369 221.27721834 30.14424369 221.27721834 30 219 C30.66 219 31.32 219 32 219 C33.12880057 215.68885166 34.21302675 212.41021743 35 209 C35.66 209 36.32 209 37 209 C37.33 208.01 37.66 207.02 38 206 C38.66 205.67 39.32 205.34 40 205 C40 206.32 40 207.64 40 209 C40.66 209 41.32 209 42 209 C42.33 208.01 42.66 207.02 43 206 C42.34 206 41.68 206 41 206 C41 205.34 41 204.68 41 204 C38.20826945 203.97309896 35.41679652 203.95320947 32.625 203.9375 C31.8309375 203.92912109 31.036875 203.92074219 30.21875 203.91210938 C25.97607778 203.76959849 25.97607778 203.76959849 22 205 C22 204.34 22 203.68 22 203 C25.465 202.505 25.465 202.505 29 202 C26.1575146 200.42726432 26.1575146 200.42726432 23 200 C23 200.66 23 201.32 23 202 C22.40832031 201.855625 21.81664062 201.71125 21.20703125 201.5625 C17.07470059 200.59177306 13.2770238 199.72406298 9 200 C9 199.01 9 198.02 9 197 C10.98 197 12.96 197 15 197 C13.68 196.67 12.36 196.34 11 196 C11 195.01 11 194.02 11 193 C12.73017508 193.45451184 14.45909877 193.91378857 16.1875 194.375 C17.63189453 194.75785156 17.63189453 194.75785156 19.10546875 195.1484375 C21.82210207 195.94766296 24.39137175 196.9031362 27 198 C26.01 196.02 26.01 196.02 25 194 C27.64 194.33 30.28 194.66 33 195 C30.85611415 192.69119986 28.83538485 190.89254289 26.1875 189.1640625 C23.03837605 187.02605433 20.39334998 184.73098342 17.625 182.125 C14.42634648 179.15203166 11.28844071 176.40493922 7.6875 173.9375 C1.8400178 169.71098309 -1.49886138 163.65022373 -4 157 C-3.34 156.34 -2.68 155.68 -2 155 C-2 154.01 -2 153.02 -2 152 C-2.99 152 -3.98 152 -5 152 Z M-67 153 C-67.33 154.65 -67.66 156.3 -68 158 C-67.01 157.67 -66.02 157.34 -65 157 C-64.67 156.01 -64.34 155.02 -64 154 C-64.99 153.67 -65.98 153.34 -67 153 Z M-59 153 C-59 153.66 -59 154.32 -59 155 C-59.66 155 -60.32 155 -61 155 C-61.33 156.32 -61.66 157.64 -62 159 C-60.02 158.01 -58.04 157.02 -56 156 C-56.33 155.01 -56.66 154.02 -57 153 C-57.66 153 -58.32 153 -59 153 Z M-95 154 C-94 157 -94 157 -94 157 Z M-21 156 C-20 159 -20 159 -20 159 Z M-75 157 C-74.67 157.99 -74.34 158.98 -74 160 C-73.67 159.01 -73.34 158.02 -73 157 C-73.66 157 -74.32 157 -75 157 Z M-133 159 C-133 159.66 -133 160.32 -133 161 C-132.34 161 -131.68 161 -131 161 C-131 161.66 -131 162.32 -131 163 C-130.01 163 -129.02 163 -128 163 C-128 162.34 -128 161.68 -128 161 C-127.34 160.67 -126.68 160.34 -126 160 C-128.31 159.67 -130.62 159.34 -133 159 Z M-139 160 C-137.515 160.99 -137.515 160.99 -136 162 C-135.67 161.34 -135.34 160.68 -135 160 C-136.32 160 -137.64 160 -139 160 Z M-72 161 C-71 163 -71 163 -71 163 Z M-65 161 C-65.99 162.485 -65.99 162.485 -67 164 C-66.01 163.67 -65.02 163.34 -64 163 C-64.33 162.34 -64.66 161.68 -65 161 Z M-23 162 C-22 164 -22 164 -22 164 Z M-50 163 C-50 164.32 -50 165.64 -50 167 C-50.66 167 -51.32 167 -52 167 C-52.33 166.01 -52.66 165.02 -53 164 C-53.33 166.31 -53.66 168.62 -54 171 C-50.59687262 169.94124926 -47.98646769 168.99097846 -45 167 C-44.27617533 164.94074861 -44.27617533 164.94074861 -44 163 C-45.98 163 -47.96 163 -50 163 Z M-41 163 C-41 163.66 -41 164.32 -41 165 C-41.99 165.495 -41.99 165.495 -43 166 C-42.01 166 -41.02 166 -40 166 C-40.33 165.01 -40.66 164.02 -41 163 Z M-86 165 C-87.0260734 166.31337396 -88.02727325 167.64664105 -89 169 C-88.01 169.495 -88.01 169.495 -87 170 C-86.34 168.35 -85.68 166.7 -85 165 C-85.33 165 -85.66 165 -86 165 Z M-31 167 C-31 167.66 -31 168.32 -31 169 C-30.01 169.33 -29.02 169.66 -28 170 C-27.67 168.68 -27.34 167.36 -27 166 C-29.0745356 165.8509288 -29.0745356 165.8509288 -31 167 Z M-39 167 C-38.34 167.66 -37.68 168.32 -37 169 C-37 168.34 -37 167.68 -37 167 C-37.66 167 -38.32 167 -39 167 Z M-90 172 C-89 174 -89 174 -89 174 Z M-73 172 C-72.67 172.99 -72.34 173.98 -72 175 C-71.67 174.01 -71.34 173.02 -71 172 C-71.66 172 -72.32 172 -73 172 Z M-133 176 C-129 177 -129 177 -129 177 Z M-90 178 C-90 178.33 -90 178.66 -90 179 C-88.02 179 -86.04 179 -84 179 C-84 178.67 -84 178.34 -84 178 C-85.98 178 -87.96 178 -90 178 Z M-105.5625 178.875 C-107.29693359 179.11863281 -107.29693359 179.11863281 -109.06640625 179.3671875 C-112.10712581 179.74572188 -112.10712581 179.74572188 -114 182 C-111.37348569 181.71880143 -108.74930665 181.42556162 -106.125 181.125 C-105.00544922 181.00705078 -105.00544922 181.00705078 -103.86328125 180.88671875 C-99.47444593 180.4919231 -99.47444593 180.4919231 -96 178 C-99.27339628 178 -102.32293536 178.40444871 -105.5625 178.875 Z M-126 180 C-125.34 180.66 -124.68 181.32 -124 182 C-124 181.34 -124 180.68 -124 180 C-124.66 180 -125.32 180 -126 180 Z M-68 180 C-67.21625 180.61875 -66.4325 181.2375 -65.625 181.875 C-63 184 -63 184 -61 186 C-60.34 184.68 -59.68 183.36 -59 182 C-62.13498292 180.14223235 -64.37471432 179.79859524 -68 180 Z M-121 184 C-120.67 184.99 -120.34 185.98 -120 187 C-119.34 187 -118.68 187 -118 187 C-118.33 186.01 -118.66 185.02 -119 184 C-119.66 184 -120.32 184 -121 184 Z M-29 190 C-28.67 190.66 -28.34 191.32 -28 192 C-26.35 191.67 -24.7 191.34 -23 191 C-23 190.67 -23 190.34 -23 190 C-24.98 190 -26.96 190 -29 190 Z M-78 200 C-78 200.33 -78 200.66 -78 201 C-75.03 201 -72.06 201 -69 201 C-69 200.67 -69 200.34 -69 200 C-71.97 200 -74.94 200 -78 200 Z M35 200 C36 202 36 202 36 202 Z M-129 211 C-128 214 -128 214 -128 214 Z M-73 213 C-72 215 -72 215 -72 215 Z M-54 214 C-54 215.98 -54 217.96 -54 220 C-53.67 220 -53.34 220 -53 220 C-53 218.02 -53 216.04 -53 214 C-53.33 214 -53.66 214 -54 214 Z M-68 217 C-67 219 -67 219 -67 219 Z M-90 218 C-89 222 -89 222 -89 222 Z M-57 218 C-56 220 -56 220 -56 220 Z M-64 219 C-63 221 -63 221 -63 221 Z M-60 219 C-60 219.66 -60 220.32 -60 221 C-59.34 220.67 -58.68 220.34 -58 220 C-58.66 219.67 -59.32 219.34 -60 219 Z M-49 221 C-49.99 221.495 -49.99 221.495 -51 222 C-51 222.66 -51 223.32 -51 224 C-50.01 223.67 -49.02 223.34 -48 223 C-48.33 222.34 -48.66 221.68 -49 221 Z M-56 223 C-56 223.66 -56 224.32 -56 225 C-55.34 225 -54.68 225 -54 225 C-54 224.34 -54 223.68 -54 223 C-54.66 223 -55.32 223 -56 223 Z M36 232 C37 235 37 235 37 235 Z M32 235 C31.84144531 235.82242188 31.68289062 236.64484375 31.51953125 237.4921875 C29.95288755 244.98784188 27.79903492 251.3479349 24 258 C24.66 258.33 25.32 258.66 26 259 C33.10503833 247.64376726 33.10503833 247.64376726 36 235 C34.68 235 33.36 235 32 235 Z M20 263 C21 265 21 265 21 265 Z M-97 264 C-96.34 264.66 -95.68 265.32 -95 266 C-95 265.34 -95 264.68 -95 264 C-95.66 264 -96.32 264 -97 264 Z M-124 268 C-123.67 269.65 -123.34 271.3 -123 273 C-122.34 272.01 -121.68 271.02 -121 270 C-117.375 268.8125 -117.375 268.8125 -114 268 C-114.33 267.34 -114.66 266.68 -115 266 C-118.38023517 266 -120.83468937 266.87455622 -124 268 Z M-113 266 C-112 268 -112 268 -112 268 Z M-66 266 C-66.99 266.495 -66.99 266.495 -68 267 C-68 267.66 -68 268.32 -68 269 C-67.01 269 -66.02 269 -65 269 C-65.33 268.01 -65.66 267.02 -66 266 Z M-110 274 C-110.66 274.66 -111.32 275.32 -112 276 C-111.01 276 -110.02 276 -109 276 C-108.67 276.66 -108.34 277.32 -108 278 C-108 276.68 -108 275.36 -108 274 C-108.66 274 -109.32 274 -110 274 Z M-127 275 C-127.33 276.32 -127.66 277.64 -128 279 C-126.68 279 -125.36 279 -124 279 C-124 278.01 -124 277.02 -124 276 C-124.99 275.67 -125.98 275.34 -127 275 Z M-121 277 C-121 277.66 -121 278.32 -121 279 C-121.99 279.33 -122.98 279.66 -124 280 C-123.67 281.98 -123.34 283.96 -123 286 C-126 284 -126 284 -128 281 C-128.33 282.98 -128.66 284.96 -129 287 C-128.34 287 -127.68 287 -127 287 C-127.33 288.98 -127.66 290.96 -128 293 C-127.01 293.33 -126.02 293.66 -125 294 C-124.01 292.68 -123.02 291.36 -122 290 C-122.99 289.01 -123.98 288.02 -125 287 C-124.24332031 287.09023438 -123.48664063 287.18046875 -122.70703125 287.2734375 C-119.87817541 287.28517196 -119.87817541 287.28517196 -118.19921875 285.1015625 C-117.70035156 284.28429687 -117.20148438 283.46703125 -116.6875 282.625 C-116.17574219 281.81289063 -115.66398437 281.00078125 -115.13671875 280.1640625 C-113.84499273 278.11230723 -113.84499273 278.11230723 -114 276 C-116.62113708 276 -118.50935112 276.31292445 -121 277 Z M-58 278 C-58 278.99 -58 279.98 -58 281 C-57.34 281 -56.68 281 -56 281 C-56 280.01 -56 279.02 -56 278 C-56.66 278 -57.32 278 -58 278 Z M9 278 C6.69328085 280.71549154 6.69328085 280.71549154 7.375 283.1875 C7.58125 283.785625 7.7875 284.38375 8 285 C8.66 282.69 9.32 280.38 10 278 C9.67 278 9.34 278 9 278 Z M24 278 C25 281 25 281 25 281 Z M-113 280 C-112 282 -112 282 -112 282 Z M-109 282 C-109.66 283.65 -110.32 285.3 -111 287 C-110.34 287 -109.68 287 -109 287 C-109.33 288.32 -109.66 289.64 -110 291 C-110.66 290.67 -111.32 290.34 -112 290 C-112 291.32 -112 292.64 -112 294 C-113.32 293.67 -114.64 293.34 -116 293 C-116.66 294.32 -117.32 295.64 -118 297 C-117.01 297.495 -117.01 297.495 -116 298 C-116 297.34 -116 296.68 -116 296 C-114.35 295.67 -112.7 295.34 -111 295 C-111.66 296.98 -112.32 298.96 -113 301 C-111.68 302.32 -110.36 303.64 -109 305 C-108.03911617 302.11734851 -107.88329059 300.32337729 -107.90234375 297.33203125 C-107.90556641 296.43935547 -107.90878906 295.54667969 -107.91210938 294.62695312 C-107.92048828 293.69818359 -107.92886719 292.76941406 -107.9375 291.8125 C-107.94201172 290.87212891 -107.94652344 289.93175781 -107.95117188 288.96289062 C-107.96295374 286.64186288 -107.97940442 284.32096356 -108 282 C-108.33 282 -108.66 282 -109 282 Z M-99 282 C-98.67 284.31 -98.34 286.62 -98 289 C-96.02 289 -94.04 289 -92 289 C-92.99 288.34 -93.98 287.68 -95 287 C-95.6875 283.875 -95.6875 283.875 -96 281 C-97.2236068 280.9254644 -97.2236068 280.9254644 -99 282 Z M-60 284 C-59.67 284.99 -59.34 285.98 -59 287 C-57.68 286.67 -56.36 286.34 -55 286 C-55 285.34 -55 284.68 -55 284 C-56.65 284 -58.3 284 -60 284 Z M-49 284 C-49.99 284.66 -50.98 285.32 -52 286 C-51.67 286.66 -51.34 287.32 -51 288 C-49.68 287.34 -48.36 286.68 -47 286 C-47.66 285.34 -48.32 284.68 -49 284 Z M-118 288 C-117 290 -117 290 -117 290 Z M-120 290 C-119.67 290.99 -119.34 291.98 -119 293 C-118.67 292.01 -118.34 291.02 -118 290 C-118.66 290 -119.32 290 -120 290 Z M-67 290 C-66.67 290.66 -66.34 291.32 -66 292 C-65.34 291.34 -64.68 290.68 -64 290 C-64.99 290 -65.98 290 -67 290 Z M11 290 C12 294 12 294 12 294 Z M5 292 C5 293.98 5 295.96 5 298 C5.33 298 5.66 298 6 298 C6 296.02 6 294.04 6 292 C5.67 292 5.34 292 5 292 Z M-67 294 C-67 295.98 -67 297.96 -67 300 C-66.01 299.34 -65.02 298.68 -64 298 C-64 296.68 -64 295.36 -64 294 C-64.99 294 -65.98 294 -67 294 Z M-138 298 C-138.33 298.66 -138.66 299.32 -139 300 C-138.401875 299.690625 -137.80375 299.38125 -137.1875 299.0625 C-135 298 -135 298 -132 297 C-132.268125 297.86625 -132.53625 298.7325 -132.8125 299.625 C-133.07195305 304.29515493 -131.00439227 305.56640883 -128 309 C-127.1875 312.375 -127.1875 312.375 -127 315 C-126.6596875 314.195625 -126.6596875 314.195625 -126.3125 313.375 C-125.13801851 311.24974779 -123.95184753 309.69753199 -122.375 307.875 C-119.78770618 305.36453083 -119.78770618 305.36453083 -120 303 C-119.01 302.67 -118.02 302.34 -117 302 C-120.28696233 301.20046862 -121.71023192 300.90341064 -125 302 C-125.66 301.67 -126.32 301.34 -127 301 C-127.625 298.4375 -127.625 298.4375 -128 296 C-133.58295959 295.30938353 -133.58295959 295.30938353 -138 298 Z M7 299 C8 301 8 301 8 301 Z M-99 300 C-99.41831404 303.28999282 -99.41831404 303.28999282 -99 307 C-96.54905772 309.98087575 -94.20472002 311.86351998 -91 314 C-89.85647084 311.71294169 -89.89665561 310.40735238 -89.9375 307.875 C-89.958125 306.59625 -89.97875 305.3175 -90 304 C-90.66 303.67 -91.32 303.34 -92 303 C-92 304.32 -92 305.64 -92 307 C-92.99 307 -93.98 307 -95 307 C-95 305.02 -95 303.04 -95 301 C-94.34 300.67 -93.68 300.34 -93 300 C-94.98 300 -96.96 300 -99 300 Z M-63 300 C-62.67 300.66 -62.34 301.32 -62 302 C-61.67 301.34 -61.34 300.68 -61 300 C-61.66 300 -62.32 300 -63 300 Z M-66 302 C-66 302.66 -66 303.32 -66 304 C-65.34 304 -64.68 304 -64 304 C-64 303.34 -64 302.68 -64 302 C-64.66 302 -65.32 302 -66 302 Z M-104 303 C-103 305 -103 305 -103 305 Z M-117 311 C-118.20450304 313.55183404 -118.20450304 313.55183404 -119 316 C-117.68 315.67 -116.36 315.34 -115 315 C-115.33 314.34 -115.66 313.68 -116 313 C-114.68 312.67 -113.36 312.34 -112 312 C-112 311.01 -112 310.02 -112 309 C-114.32357511 308.81509993 -114.32357511 308.81509993 -117 311 Z M-64 309 C-63.67 309.66 -63.34 310.32 -63 311 C-62.01 310.34 -61.02 309.68 -60 309 C-61.32 309 -62.64 309 -64 309 Z M-101 311 C-100 313 -100 313 -100 313 Z M-100 313 C-99.67 313.66 -99.34 314.32 -99 315 C-98.34 314.67 -97.68 314.34 -97 314 C-97.99 313.67 -98.98 313.34 -100 313 Z M-37 314 C-36 317 -36 317 -36 317 Z M-38 317 C-38.66 317.66 -39.32 318.32 -40 319 C-39.34 319.66 -38.68 320.32 -38 321 C-37.67 319.68 -37.34 318.36 -37 317 C-37.33 317 -37.66 317 -38 317 Z M-113 321 C-113.33 321.66 -113.66 322.32 -114 323 C-112.35 322.67 -110.7 322.34 -109 322 C-110.32 321.67 -111.64 321.34 -113 321 Z M-53 321 C-53 324 -53 324 -53 324 Z M41 321 C42 323 42 323 42 323 Z M-62 323 C-62.33 323.66 -62.66 324.32 -63 325 C-61.68 324.67 -60.36 324.34 -59 324 C-59.99 323.67 -60.98 323.34 -62 323 Z M-82 324 C-81 326 -81 326 -81 326 Z M-94 325 C-94 327.31 -94 329.62 -94 332 C-93.67 332 -93.34 332 -93 332 C-93 329.69 -93 327.38 -93 325 C-93.33 325 -93.66 325 -94 325 Z M-53 325 C-52 327 -52 327 -52 327 Z M-97 327 C-97 329.31 -97 331.62 -97 334 C-96.67 334 -96.34 334 -96 334 C-96 331.69 -96 329.38 -96 327 C-96.33 327 -96.66 327 -97 327 Z M-55 327 C-54.67 327.66 -54.34 328.32 -54 329 C-53.67 328.34 -53.34 327.68 -53 327 C-53.66 327 -54.32 327 -55 327 Z M-122 330 C-121.67 330.66 -121.34 331.32 -121 332 C-117.62537285 331.45276317 -115.91765 330.9451 -113 329 C-116.76624671 327.74458443 -118.37188934 328.62938042 -122 330 Z M-101 329 C-101 330.65 -101 332.3 -101 334 C-100.67 334 -100.34 334 -100 334 C-100 332.35 -100 330.7 -100 329 C-100.33 329 -100.66 329 -101 329 Z M-105 330 C-105.99 330.66 -106.98 331.32 -108 332 C-106.68 332 -105.36 332 -104 332 C-104.33 331.34 -104.66 330.68 -105 330 Z M-79 333 C-79 334.32 -79 335.64 -79 337 C-77.07977297 338.77409808 -77.07977297 338.77409808 -75 340 C-76.485 342.475 -76.485 342.475 -78 345 C-78.33 344.34 -78.66 343.68 -79 343 C-79 345.97 -79 348.94 -79 352 C-78.67 351.34 -78.34 350.68 -78 350 C-75.44445783 349.15258932 -72.86234081 348.52828074 -70.25 347.87890625 C-69.5075 347.58886719 -68.765 347.29882812 -68 347 C-66.81775332 343.45325997 -67.10670366 341.02477005 -67.4375 337.3125 C-67.53933594 336.13300781 -67.64117187 334.95351563 -67.74609375 333.73828125 C-67.82988281 332.83464844 -67.91367188 331.93101562 -68 331 C-72.23294004 330.90619523 -75.14213034 331.18453193 -79 333 Z M-109 332 C-108 334 -108 334 -108 334 Z M-115 334 C-114.16666667 336.16666667 -114.16666667 336.16666667 -112 337 C-111.67 335.68 -111.34 334.36 -111 333 C-113.0745356 332.8509288 -113.0745356 332.8509288 -115 334 Z M-105 333 C-104 336 -104 336 -104 336 Z M-118 337 C-118.99 337.495 -118.99 337.495 -120 338 C-120 338.66 -120 339.32 -120 340 C-118.35 340 -116.7 340 -115 340 C-115.99 339.01 -116.98 338.02 -118 337 Z M-112 337 C-111 339 -111 339 -111 339 Z M-64 337 C-64 339.31 -64 341.62 -64 344 C-63.01 344 -62.02 344 -61 344 C-61 341.36 -61 338.72 -61 336 C-62.2236068 335.9254644 -62.2236068 335.9254644 -64 337 Z M-98 341 C-97.67 341.66 -97.34 342.32 -97 343 C-96.01 342.34 -95.02 341.68 -94 341 C-95.32 341 -96.64 341 -98 341 Z M-86 340 C-88.76223278 342.76223278 -88.57856291 345.20706617 -89 349 C-88.34 349 -87.68 349 -87 349 C-87 349.99 -87 350.98 -87 352 C-86.34 352 -85.68 352 -85 352 C-85 348.04 -85 344.08 -85 340 C-85.33 340 -85.66 340 -86 340 Z M-109 343 C-108 346 -108 346 -108 346 Z M-95.625 345.5 C-96.07875 345.995 -96.5325 346.49 -97 347 C-95.68 347.33 -94.36 347.66 -93 348 C-92.67 346.68 -92.34 345.36 -92 344 C-94.12364481 343.77390663 -94.12364481 343.77390663 -95.625 345.5 Z M-120 346 C-119.67 346.66 -119.34 347.32 -119 348 C-118.67 347.34 -118.34 346.68 -118 346 C-118.66 346 -119.32 346 -120 346 Z M-104 347 C-103.67 348.65 -103.34 350.3 -103 352 C-100.69 351.01 -98.38 350.02 -96 349 C-96.33 348.34 -96.66 347.68 -97 347 C-100.57535019 345.9238946 -100.57535019 345.9238946 -104 347 Z M-124 347 C-123.67 347.66 -123.34 348.32 -123 349 C-122.34 348.34 -121.68 347.68 -121 347 C-121.99 347 -122.98 347 -124 347 Z M-62 347 C-62.99 347.33 -63.98 347.66 -65 348 C-64.67 348.66 -64.34 349.32 -64 350 C-63.01 349.67 -62.02 349.34 -61 349 C-61.33 348.34 -61.66 347.68 -62 347 Z M-62 352 C-65.22488484 354.77530304 -65.5343958 357.08187709 -65.8828125 361.3046875 C-66.09581285 366.20369555 -66.07465166 371.09787405 -66 376 C-65.34 375.34 -64.68 374.68 -64 374 C-64 373.01 -64 372.02 -64 371 C-62.02 370.34 -60.04 369.68 -58 369 C-58.33 368.34 -58.66 367.68 -59 367 C-59.66 367 -60.32 367 -61 367 C-61.08333357 362.1666528 -60.95261487 357.76307437 -60 353 C-60.66 352.67 -61.32 352.34 -62 352 Z M-102 354 C-103.35618499 355.12534105 -103.35618499 355.12534105 -103.0625 358.0625 C-103.041875 359.031875 -103.02125 360.00125 -103 361 C-100.69 360.01 -98.38 359.02 -96 358 C-97.32 357.34 -98.64 356.68 -100 356 C-100 355.34 -100 354.68 -100 354 C-100.66 354 -101.32 354 -102 354 Z M-93 354 C-93.99 354.99 -94.98 355.98 -96 357 C-94.35 356.34 -92.7 355.68 -91 355 C-91.66 354.67 -92.32 354.34 -93 354 Z M-44 359 C-43 361 -43 361 -43 361 Z M-13 360 C-13 361.98 -13 363.96 -13 366 C-12.67 366 -12.34 366 -12 366 C-12 364.02 -12 362.04 -12 360 C-12.33 360 -12.66 360 -13 360 Z M-1 366 C-1 366.99 -1 367.98 -1 369 C-0.34 369 0.32 369 1 369 C1 368.01 1 367.02 1 366 C0.34 366 -0.32 366 -1 366 Z M-111 368 C-111 368.66 -111 369.32 -111 370 C-111.66 370 -112.32 370 -113 370 C-112.67 370.66 -112.34 371.32 -112 372 C-110.68 371.34 -109.36 370.68 -108 370 C-108.33 369.34 -108.66 368.68 -109 368 C-109.66 368 -110.32 368 -111 368 Z M-33 368 C-33.28875 368.639375 -33.5775 369.27875 -33.875 369.9375 C-35 372 -35 372 -37 373 C-36.01 373.99 -35.02 374.98 -34 376 C-30.22454612 374.90931332 -27.52956528 374.0916909 -25 371 C-25.94875 370.690625 -26.8975 370.38125 -27.875 370.0625 C-31 369 -31 369 -33 368 Z M-100 374 C-100.66 375.98 -101.32 377.96 -102 380 C-101.34 380.66 -100.68 381.32 -100 382 C-99.67 380.68 -99.34 379.36 -99 378 C-98.34 378 -97.68 378 -97 378 C-97.33 376.68 -97.66 375.36 -98 374 C-98.66 374 -99.32 374 -100 374 Z " fill="#020202" transform="translate(204,9)"/>
<path d="M0 0 C1.32 0.33 2.64 0.66 4 1 C3.40418541 4.33950398 2.27160871 6.08641542 0.0625 8.625 C-3.0053864 12.53692213 -3.96442753 15.92839072 -4.67578125 20.80078125 C-5 23 -5 23 -6 26 C-5.60602665 28.63804589 -5.60602665 28.63804589 -5 31 C-5.99 31.66 -6.98 32.32 -8 33 C-8 33.99 -8 34.98 -8 36 C-8.99 36 -9.98 36 -11 36 C-12.0562059 31.45831463 -11.85079647 29.21570307 -10 25 C-9.835 23.783125 -9.67 22.56625 -9.5 21.3125 C-9 18 -9 18 -7 16 C-5.07169549 11.99505986 -4 9.48482322 -4 5 C-2 2.25 -2 2.25 0 0 Z " fill="#050505" transform="translate(179,275)"/>
<path d="M0 0 C0.66 0 1.32 0 2 0 C1.44040477 3.82246588 -0.21317357 5.58971741 -2.9375 8.25 C-3.64777344 8.95640625 -4.35804688 9.6628125 -5.08984375 10.390625 C-7 12 -7 12 -9 12 C-9.20625 12.721875 -9.4125 13.44375 -9.625 14.1875 C-11.47528988 17.97218384 -13.60240438 19.52258653 -17 22 C-17.66 22 -18.32 22 -19 22 C-17.63629701 19.00779732 -16.05091917 16.70973471 -13.875 14.25 C-13.33617187 13.63640625 -12.79734375 13.0228125 -12.2421875 12.390625 C-11.62730469 11.70226562 -11.62730469 11.70226562 -11 11 C-11.99 11.33 -12.98 11.66 -14 12 C-14 11.01 -14 10.02 -14 9 C-10.27263224 5.44599818 -6.4344444 2 -1 2 C-0.67 1.34 -0.34 0.68 0 0 Z " fill="#050505" transform="translate(233,218)"/>
<path d="M0 0 C0.99 0 1.98 0 3 0 C3 0.66 3 1.32 3 2 C4.03125 2.103125 5.0625 2.20625 6.125 2.3125 C9.9866231 2.99762668 12.55400104 4.2020875 16 6 C18.73572585 6.69907414 18.73572585 6.69907414 21 7 C21 7.99 21 8.98 21 10 C26.445 9.01 26.445 9.01 32 8 C31.34 9.32 30.68 10.64 30 12 C27.8359375 12.609375 27.8359375 12.609375 25.375 12.75 C24.55773437 12.80671875 23.74046875 12.8634375 22.8984375 12.921875 C22.27195313 12.94765625 21.64546875 12.9734375 21 13 C20.67 12.01 20.34 11.02 20 10 C18.906875 9.87625 17.81375 9.7525 16.6875 9.625 C13 9 13 9 10 7 C10 7.66 10 8.32 10 9 C9.34 9 8.68 9 8 9 C8 8.01 8 7.02 8 6 C5.36 4.68 2.72 3.36 0 2 C0 1.34 0 0.68 0 0 Z " fill="#060606" transform="translate(182,208)"/>
<path d="M0 0 C0.66 0 1.32 0 2 0 C1.44661458 1.953125 0.89322917 3.90625 0.33984375 5.859375 C-0.03486159 8.21958796 0.27346676 9.74419051 1 12 C0.34 12 -0.32 12 -1 12 C-1.268125 12.969375 -1.53625 13.93875 -1.8125 14.9375 C-2.204375 15.948125 -2.59625 16.95875 -3 18 C-3.99 18.33 -4.98 18.66 -6 19 C-5.67 19.99 -5.34 20.98 -5 22 C-6.65 22.33 -8.3 22.66 -10 23 C-9.34728444 19.48294042 -8.48606976 16.10674923 -7.4375 12.6875 C-7.16808594 11.80449219 -6.89867187 10.92148438 -6.62109375 10.01171875 C-6.31365234 9.01591797 -6.31365234 9.01591797 -6 8 C-5.34 8 -4.68 8 -4 8 C-3.525625 6.865625 -3.05125 5.73125 -2.5625 4.5625 C-1 1 -1 1 0 0 Z " fill="#080808" transform="translate(229,239)"/>
<path d="M0 0 C-1.93617021 6.70212766 -1.93617021 6.70212766 -5 9 C-5.66 9 -6.32 9 -7 9 C-7 9.66 -7 10.32 -7 11 C-7.66 11 -8.32 11 -9 11 C-9 11.66 -9 12.32 -9 13 C-11.90548882 15.04169485 -13.40142046 16 -17 16 C-17 14.02 -17 12.04 -17 10 C-16.28199219 9.75507813 -15.56398437 9.51015625 -14.82421875 9.2578125 C-11.66581829 7.85116665 -9.44985103 6.1013871 -6.8125 3.875 C-2.21352313 0 -2.21352313 0 0 0 Z " fill="#060606" transform="translate(203,276)"/>
<path d="M0 0 C1.32 0.33 2.64 0.66 4 1 C3.37755401 2.27208622 2.75193233 3.54261882 2.125 4.8125 C1.77695313 5.52019531 1.42890625 6.22789062 1.0703125 6.95703125 C0 9 0 9 -2 12 C-2.66 12 -3.32 12 -4 12 C-4.4021875 13.0828125 -4.4021875 13.0828125 -4.8125 14.1875 C-5.98982498 16.97590126 -7.39145884 19.44095724 -9 22 C-9.99 21.67 -10.98 21.34 -12 21 C-7.62290076 12.60458015 -7.62290076 12.60458015 -4.875 9.9375 C-2.06177448 7.0305003 -1.27273852 3.81821557 0 0 Z " fill="#080808" transform="translate(215,269)"/>
<path d="M0 0 C0.99 0 1.98 0 3 0 C2.09756969 4.98862382 -0.99546368 7.66652614 -4.375 11.25 C-4.96539062 11.8996875 -5.55578125 12.549375 -6.1640625 13.21875 C-7.02257812 14.13914062 -7.02257812 14.13914062 -7.8984375 15.078125 C-8.42099121 15.63918945 -8.94354492 16.20025391 -9.48193359 16.77832031 C-11 18 -11 18 -14 18 C-12.61263874 14.84375314 -10.99607292 12.80136567 -8.5 10.4375 C-6.27903267 8.32475777 -4.72257583 6.58386374 -3 4 C-2.34 4 -1.68 4 -1 4 C-0.67 2.68 -0.34 1.36 0 0 Z " fill="#070707" transform="translate(208,273)"/>
<path d="M0 0 C1.4370809 -0.05422947 2.87475462 -0.09289723 4.3125 -0.125 C5.11300781 -0.14820313 5.91351563 -0.17140625 6.73828125 -0.1953125 C9 0 9 0 12 2 C12 2.66 12 3.32 12 4 C7.50737024 4 3.43958997 3.7721026 -1 3 C-0.67 2.01 -0.34 1.02 0 0 Z " fill="#040404" transform="translate(116,245)"/>
<path d="M0 0 C0.66 0.33 1.32 0.66 2 1 C2 2.65 2 4.3 2 6 C2.66 6 3.32 6 4 6 C4 7.98 4 9.96 4 12 C3.01 12 2.02 12 1 12 C1 10.68 1 9.36 1 8 C0.34 8 -0.32 8 -1 8 C-1.04241723 5.66705225 -1.04092937 3.33297433 -1 1 C-0.67 0.67 -0.34 0.34 0 0 Z " fill="#0A0A0A" transform="translate(119,257)"/>
<path d="M0 0 C-1.41573821 3.39187279 -3.04230966 5.09697541 -6 7.25 C-7.051875 8.03117187 -7.051875 8.03117187 -8.125 8.828125 C-10 10 -10 10 -12 10 C-11.61993645 7.35107221 -11.19914355 6.19467845 -9.2578125 4.296875 C-8.55398437 3.78640625 -7.85015625 3.2759375 -7.125 2.75 C-6.42632812 2.22921875 -5.72765625 1.7084375 -5.0078125 1.171875 C-3 0 -3 0 0 0 Z " fill="#080808" transform="translate(200,300)"/>
<path d="M0 0 C0 0.99 0 1.98 0 3 C-1.6232687 3.6708712 -3.24867578 4.33657029 -4.875 5 C-6.23238281 5.556875 -6.23238281 5.556875 -7.6171875 6.125 C-10 7 -10 7 -12 7 C-11 4 -11 4 -9.2578125 2.83203125 C-8.20207031 2.32736328 -8.20207031 2.32736328 -7.125 1.8125 C-6.42632812 1.46832031 -5.72765625 1.12414062 -5.0078125 0.76953125 C-3 0 -3 0 0 0 Z " fill="#080808" transform="translate(210,229)"/>
<path d="M0 0 C2.64 0 5.28 0 8 0 C8 1.98 8 3.96 8 6 C7.01 6 6.02 6 5 6 C4.67 5.34 4.34 4.68 4 4 C1.98330173 2.86649466 1.98330173 2.86649466 0 2 C0 1.34 0 0.68 0 0 Z " fill="#090909" transform="translate(122,289)"/>
<path d="M0 0 C0 0.66 0 1.32 0 2 C-2.97 2.66 -5.94 3.32 -9 4 C-9.33 3.01 -9.66 2.02 -10 1 C-6.78548731 -0.60725635 -3.56387464 -0.05748185 0 0 Z " fill="#060606" transform="translate(207,227)"/>
<path d="M0 0 C0.66 0 1.32 0 2 0 C2 0.66 2 1.32 2 2 C3.98 1.67 5.96 1.34 8 1 C6.71034824 2.37562854 5.37310707 3.70766393 4 5 C3.34 5 2.68 5 2 5 C2 4.34 2 3.68 2 3 C0.68 3.33 -0.64 3.66 -2 4 C-2.33 3.34 -2.66 2.68 -3 2 C-2.01 2 -1.02 2 0 2 C0 1.34 0 0.68 0 0 Z " fill="#060606" transform="translate(210,224)"/>
<path d="M0 0 C0.66 0 1.32 0 2 0 C2 0.66 2 1.32 2 2 C3.65 2.33 5.3 2.66 7 3 C7 3.99 7 4.98 7 6 C4.69 5.67 2.38 5.34 0 5 C0 3.35 0 1.7 0 0 Z " fill="#090909" transform="translate(103,169)"/>
<path d="M0 0 C1.98362069 2.91708924 1.9876191 4.12380904 1.625 7.75 C1.41875 8.8225 1.2125 9.895 1 11 C0.34 11 -0.32 11 -1 11 C-1.02688151 9.35425434 -1.04634123 7.70838587 -1.0625 6.0625 C-1.07410156 5.14597656 -1.08570312 4.22945312 -1.09765625 3.28515625 C-1 1 -1 1 0 0 Z " fill="#101010" transform="translate(104,157)"/>
<path d="M0 0 C0.66 0 1.32 0 2 0 C2 2.97 2 5.94 2 9 C1.34 9 0.68 9 0 9 C-1.125 2.25 -1.125 2.25 0 0 Z " fill="#0C0C0C" transform="translate(131,343)"/>
<path d="M0 0 C0.66 0 1.32 0 2 0 C1.67 2.31 1.34 4.62 1 7 C0.01 7.33 -0.98 7.66 -2 8 C-2.20086443 4.28400809 -2.1519437 3.22791555 0 0 Z " fill="#070707" transform="translate(172,265)"/>
<path d="M0 0 C0.66 0.66 1.32 1.32 2 2 C1.34 4.31 0.68 6.62 0 9 C-0.66 9 -1.32 9 -2 9 C-1.125 1.125 -1.125 1.125 0 0 Z " fill="#070707" transform="translate(174,254)"/>
<path d="M0 0 C2.475 0.99 2.475 0.99 5 2 C5 2.99 5 3.98 5 5 C3.35 5.33 1.7 5.66 0 6 C-0.38218767 4.34385343 -0.71395102 2.67542976 -1 1 C-0.67 0.67 -0.34 0.34 0 0 Z " fill="#0E0E0E" transform="translate(92,380)"/>
<path d="M0 0 C-0.25 1.875 -0.25 1.875 -1 4 C-3.0625 5.25 -3.0625 5.25 -5 6 C-5 4.68 -5 3.36 -5 2 C-2 0 -2 0 0 0 Z " fill="#0B0B0B" transform="translate(184,249)"/>
<path d="M0 0 C0.66 0 1.32 0 2 0 C2 2.64 2 5.28 2 8 C1.01 8 0.02 8 -1 8 C-0.67 5.36 -0.34 2.72 0 0 Z " fill="#121212" transform="translate(99,363)"/>
<path d="M0 0 C1.0326802 2.78823655 1.04509293 3.8677274 0.0625 6.75 C-0.288125 7.4925 -0.63875 8.235 -1 9 C-1.66 9 -2.32 9 -3 9 C-2.44271087 5.65626525 -1.64826111 2.96687001 0 0 Z " fill="#080808" transform="translate(226,237)"/>
<path d="M0 0 C0.66 0 1.32 0 2 0 C2 1.98 2 3.96 2 6 C1.01 6 0.02 6 -1 6 C-0.67 4.02 -0.34 2.04 0 0 Z " fill="#060606" transform="translate(127,273)"/>
<path d="M0 0 C0.99 0 1.98 0 3 0 C2.34 1.65 1.68 3.3 1 5 C0.34 5 -0.32 5 -1 5 C-0.67 3.35 -0.34 1.7 0 0 Z " fill="#070707" transform="translate(181,241)"/>
<path d="M0 0 C0.99 0 1.98 0 3 0 C3 1.65 3 3.3 3 5 C2.01 5 1.02 5 0 5 C0 3.35 0 1.7 0 0 Z " fill="#060606" transform="translate(98,235)"/>
<path d="M0 0 C-0.66 1.32 -1.32 2.64 -2 4 C-2.99 4 -3.98 4 -5 4 C-5 3.34 -5 2.68 -5 2 C-2 0 -2 0 0 0 Z " fill="#0D0D0D" transform="translate(199,306)"/>
<path d="M0 0 C0.99 0.33 1.98 0.66 3 1 C2.01 2.485 2.01 2.485 1 4 C0.01 4 -0.98 4 -2 4 C-2 3.34 -2 2.68 -2 2 C-1.34 2 -0.68 2 0 2 C0 1.34 0 0.68 0 0 Z " fill="#030303" transform="translate(188,261)"/>
<path d="M0 0 C0 0.99 0 1.98 0 3 C-1.32 3.33 -2.64 3.66 -4 4 C-4 3.01 -4 2.02 -4 1 C-2 0 -2 0 0 0 Z " fill="#040404" transform="translate(195,258)"/>
<path d="M0 0 C1.32 0 2.64 0 4 0 C4 0.99 4 1.98 4 3 C2.68 3 1.36 3 0 3 C0 2.01 0 1.02 0 0 Z " fill="#060606" transform="translate(208,200)"/>
<path d="M0 0 C0.66 0 1.32 0 2 0 C2 1.32 2 2.64 2 4 C0.68 3.34 -0.64 2.68 -2 2 C-1.34 1.34 -0.68 0.68 0 0 Z " fill="#070707" transform="translate(113,394)"/>
<path d="M0 0 C-0.33 1.32 -0.66 2.64 -1 4 C-2.32 3.01 -3.64 2.02 -5 1 C-2 0 -2 0 0 0 Z " fill="#0F0F0F" transform="translate(225,262)"/>
<path d="M0 0 C0.66 0 1.32 0 2 0 C2 0.99 2 1.98 2 3 C0.68 3.33 -0.64 3.66 -2 4 C-1.34 2.68 -0.68 1.36 0 0 Z " fill="#050505" transform="translate(199,254)"/>
<path d="M0 0 C0.99 0 1.98 0 3 0 C3 0.99 3 1.98 3 3 C1.68 3 0.36 3 -1 3 C-0.67 2.01 -0.34 1.02 0 0 Z " fill="#020202" transform="translate(239,136)"/>
<path d="M0 0 C1.32 0.33 2.64 0.66 4 1 C4 1.66 4 2.32 4 3 C2.68 3 1.36 3 0 3 C0 2.01 0 1.02 0 0 Z " fill="#030303" transform="translate(198,16)"/>
<path d="M0 0 C0.99 0 1.98 0 3 0 C2.67 0.99 2.34 1.98 2 3 C1.34 3 0.68 3 0 3 C0 2.01 0 1.02 0 0 Z " fill="#030303" transform="translate(192,316)"/>
<path d="M0 0 C0.66 0 1.32 0 2 0 C2 0.99 2 1.98 2 3 C1.01 3 0.02 3 -1 3 C-0.67 2.01 -0.34 1.02 0 0 Z " fill="#040404" transform="translate(186,312)"/>
<path d="M0 0 C0.99 0 1.98 0 3 0 C2.67 0.99 2.34 1.98 2 3 C1.34 3 0.68 3 0 3 C0 2.01 0 1.02 0 0 Z " fill="#050505" transform="translate(82,290)"/>
<path d="M0 0 C0.99 0.495 0.99 0.495 2 1 C1.67 2.32 1.34 3.64 1 5 C0.67 3.35 0.34 1.7 0 0 Z " fill="#010101" transform="translate(278,213)"/>
<path d="M0 0 C0.99 0 1.98 0 3 0 C3 0.99 3 1.98 3 3 C2.34 3 1.68 3 1 3 C0.67 2.01 0.34 1.02 0 0 Z " fill="#050505" transform="translate(197,310)"/>
<path d="M0 0 C0.99 0 1.98 0 3 0 C2.67 0.99 2.34 1.98 2 3 C1.34 2.67 0.68 2.34 0 2 C0 1.34 0 0.68 0 0 Z " fill="#060606" transform="translate(125,257)"/>
<path d="M0 0 C0.66 0 1.32 0 2 0 C2 0.99 2 1.98 2 3 C1.01 2.67 0.02 2.34 -1 2 C-0.67 1.34 -0.34 0.68 0 0 Z " fill="#070707" transform="translate(97,174)"/>
<path d="M0 0 C0.66 0 1.32 0 2 0 C2 0.99 2 1.98 2 3 C1.34 3 0.68 3 0 3 C0 2.01 0 1.02 0 0 Z " fill="#040404" transform="translate(82,376)"/>
<path d="M0 0 C0.99 0 1.98 0 3 0 C3 0.66 3 1.32 3 2 C2.01 2 1.02 2 0 2 C0 1.34 0 0.68 0 0 Z " fill="#0D0D0D" transform="translate(72,373)"/>
<path d="M0 0 C0.66 0 1.32 0 2 0 C1.67 0.99 1.34 1.98 1 3 C0.34 2.67 -0.32 2.34 -1 2 C-0.67 1.34 -0.34 0.68 0 0 Z " fill="#1E1E1E" transform="translate(34,361)"/>
<path d="M0 0 C0.66 0 1.32 0 2 0 C2 0.99 2 1.98 2 3 C1.34 3 0.68 3 0 3 C0 2.01 0 1.02 0 0 Z " fill="#060606" transform="translate(129,270)"/>
<path d="M0 0 C0.99 0 1.98 0 3 0 C2.67 0.99 2.34 1.98 2 3 C1.34 2.67 0.68 2.34 0 2 C0 1.34 0 0.68 0 0 Z " fill="#000000" transform="translate(78,227)"/>
<path d="M0 0 C1.32 0 2.64 0 4 0 C3.67 0.99 3.34 1.98 3 3 C3 2.34 3 1.68 3 1 C2.01 0.67 1.02 0.34 0 0 Z " fill="#000000" transform="translate(232,215)"/>
<path d="M0 0 C0.33 1.32 0.66 2.64 1 4 C0.67 3.34 0.34 2.68 0 2 C-0.66 1.67 -1.32 1.34 -2 1 C-1.34 0.67 -0.68 0.34 0 0 Z " fill="#050404" transform="translate(76,194)"/>
<path d="M0 0 C0.66 0 1.32 0 2 0 C2 0.99 2 1.98 2 3 C1.34 3 0.68 3 0 3 C0 2.01 0 1.02 0 0 Z " fill="#010101" transform="translate(155,173)"/>
<path d="M0 0 C0.99 0.33 1.98 0.66 3 1 C2.01 1.33 1.02 1.66 0 2 C0 1.34 0 0.68 0 0 Z " fill="#020202" transform="translate(196,392)"/>
<path d="M0 0 C1.485 0.99 1.485 0.99 3 2 C1.68 1.67 0.36 1.34 -1 1 C-0.67 0.67 -0.34 0.34 0 0 Z " fill="#000000" transform="translate(208,52)"/>
<path d="M0 0 C0.66 0 1.32 0 2 0 C2 0.66 2 1.32 2 2 C1.34 2 0.68 2 0 2 C0 1.34 0 0.68 0 0 Z " fill="#030303" transform="translate(90,399)"/>
<path d="M0 0 C0.66 0 1.32 0 2 0 C2 0.66 2 1.32 2 2 C1.34 2 0.68 2 0 2 C0 1.34 0 0.68 0 0 Z " fill="#1B1B1B" transform="translate(33,380)"/>
<path d="M0 0 C1 4 1 4 1 4 Z " fill="#000000" transform="translate(274,360)"/>
<path d="M0 0 C0.66 0 1.32 0 2 0 C2 0.66 2 1.32 2 2 C1.34 2 0.68 2 0 2 C0 1.34 0 0.68 0 0 Z " fill="#0C0C0C" transform="translate(200,307)"/>
<path d="M0 0 C0.99 0.495 0.99 0.495 2 1 C1.67 1.66 1.34 2.32 1 3 C0.67 2.01 0.34 1.02 0 0 Z " fill="#000000" transform="translate(93,301)"/>
<path d="M0 0 C0.66 0 1.32 0 2 0 C2 0.66 2 1.32 2 2 C1.34 2 0.68 2 0 2 C0 1.34 0 0.68 0 0 Z " fill="#111111" transform="translate(129,301)"/>
<path d="M0 0 C0.66 0 1.32 0 2 0 C2 0.66 2 1.32 2 2 C1.34 2 0.68 2 0 2 C0 1.34 0 0.68 0 0 Z " fill="#000000" transform="translate(85,287)"/>
<path d="M0 0 C1 4 1 4 1 4 Z " fill="#000000" transform="translate(130,275)"/>
<path d="M0 0 C0.99 0.33 1.98 0.66 3 1 C2.01 1 1.02 1 0 1 C0 0.67 0 0.34 0 0 Z " fill="#030303" transform="translate(221,219)"/>
<path d="M0 0 C0.66 0 1.32 0 2 0 C2 0.66 2 1.32 2 2 C1.34 2 0.68 2 0 2 C0 1.34 0 0.68 0 0 Z " fill="#040404" transform="translate(231,136)"/>
<path d="M0 0 C0.66 0 1.32 0 2 0 C2 0.66 2 1.32 2 2 C1.34 2 0.68 2 0 2 C0 1.34 0 0.68 0 0 Z " fill="#020202" transform="translate(246,41)"/>
<path d="M0 0 C3 1 3 1 3 1 Z " fill="#141414" transform="translate(143,425)"/>
<path d="M0 0 C0.99 0.495 0.99 0.495 2 1 C1.01 1.495 1.01 1.495 0 2 C0 1.34 0 0.68 0 0 Z " fill="#010101" transform="translate(119,407)"/>
<path d="" fill="#000000" transform="translate(0,0)"/>
<path d="M0 0 C0.66 0 1.32 0 2 0 C1.67 0.66 1.34 1.32 1 2 C0.67 1.34 0.34 0.68 0 0 Z " fill="#262626" transform="translate(17,397)"/>
<path d="M0 0 C0.33 0.66 0.66 1.32 1 2 C0.34 1.67 -0.32 1.34 -1 1 C-0.67 0.67 -0.34 0.34 0 0 Z " fill="#040404" transform="translate(190,313)"/>
<path d="M0 0 C0.33 0.66 0.66 1.32 1 2 C0.34 1.67 -0.32 1.34 -1 1 C-0.67 0.67 -0.34 0.34 0 0 Z " fill="#060606" transform="translate(202,312)"/>
<path d="M0 0 C3 1 3 1 3 1 Z " fill="#000000" transform="translate(203,310)"/>
<path d="M0 0 C0.33 0.66 0.66 1.32 1 2 C0.34 1.67 -0.32 1.34 -1 1 C-0.67 0.67 -0.34 0.34 0 0 Z " fill="#070707" transform="translate(200,303)"/>
<path d="" fill="#000000" transform="translate(0,0)"/>
<path d="M0 0 C0.33 0.66 0.66 1.32 1 2 C0.34 1.67 -0.32 1.34 -1 1 C-0.67 0.67 -0.34 0.34 0 0 Z " fill="#000000" transform="translate(181,247)"/>
<path d="M0 0 C0.99 0.495 0.99 0.495 2 1 C1.01 1.495 1.01 1.495 0 2 C0 1.34 0 0.68 0 0 Z " fill="#000000" transform="translate(230,245)"/>
<path d="M0 0 C0.99 0.495 0.99 0.495 2 1 C1.01 1.495 1.01 1.495 0 2 C0 1.34 0 0.68 0 0 Z " fill="#000000" transform="translate(239,228)"/>
<path d="M0 0 C0.66 0.66 1.32 1.32 2 2 C1.34 2 0.68 2 0 2 C0 1.34 0 0.68 0 0 Z " fill="#040404" transform="translate(219,223)"/>
<path d="" fill="#000000" transform="translate(0,0)"/>
<path d="M0 0 C0.99 0.495 0.99 0.495 2 1 C1.01 1.495 1.01 1.495 0 2 C0 1.34 0 0.68 0 0 Z " fill="#000000" transform="translate(186,207)"/>
<path d="M0 0 C0.99 0.495 0.99 0.495 2 1 C1.01 1.495 1.01 1.495 0 2 C0 1.34 0 0.68 0 0 Z " fill="#000000" transform="translate(271,200)"/>
<path d="" fill="#000000" transform="translate(0,0)"/>
<path d="" fill="#000000" transform="translate(0,0)"/>
<path d="M0 0 C2 1 2 1 2 1 Z " fill="#000000" transform="translate(128,355)"/>
<path d="" fill="#0D0D0D" transform="translate(0,0)"/>
<path d="" fill="#000000" transform="translate(0,0)"/>
<path d="" fill="#000000" transform="translate(0,0)"/>
<path d="" fill="#000000" transform="translate(0,0)"/>
<path d="M0 0 C2 1 2 1 2 1 Z " fill="#000000" transform="translate(122,293)"/>
<path d="" fill="#040404" transform="translate(0,0)"/>
<path d="M0 0 C2 1 2 1 2 1 Z " fill="#090909" transform="translate(221,241)"/>
<path d="" fill="#0D0D0D" transform="translate(0,0)"/>
<path d="" fill="#000000" transform="translate(0,0)"/>
<path d="M0 0 C2 1 2 1 2 1 Z " fill="#000000" transform="translate(80,230)"/>
<path d="" fill="#040404" transform="translate(0,0)"/>
<path d="" fill="#0A0A0A" transform="translate(0,0)"/>
<path d="" fill="#000000" transform="translate(0,0)"/>
<path d="M0 0 C2 1 2 1 2 1 Z " fill="#050505" transform="translate(195,218)"/>
<path d="" fill="#000000" transform="translate(0,0)"/>
<path d="M0 0 C2 1 2 1 2 1 Z " fill="#000000" transform="translate(130,214)"/>
<path d="" fill="#000000" transform="translate(0,0)"/>
<path d="M0 0 C2 1 2 1 2 1 Z " fill="#000000" transform="translate(212,203)"/>
<path d="M0 0 C2 1 2 1 2 1 Z " fill="#000000" transform="translate(69,193)"/>
<path d="M0 0 C2 1 2 1 2 1 Z " fill="#000000" transform="translate(142,192)"/>
<path d="M0 0 C2 1 2 1 2 1 Z " fill="#000000" transform="translate(98,180)"/>
<path d="" fill="#000000" transform="translate(0,0)"/>
<path d="M0 0 C2 1 2 1 2 1 Z " fill="#000000" transform="translate(145,164)"/>
<path d="" fill="#000000" transform="translate(0,0)"/>
<path d="M0 0 C2 1 2 1 2 1 Z " fill="#0C0C0C" transform="translate(307,155)"/>
<path d="" fill="#000000" transform="translate(0,0)"/>
<path d="M0 0 C2 1 2 1 2 1 Z " fill="#000000" transform="translate(240,140)"/>
<path d="M0 0 C2 1 2 1 2 1 Z " fill="#000000" transform="translate(108,129)"/>
<path d="" fill="#000000" transform="translate(0,0)"/>
<path d="" fill="#000000" transform="translate(0,0)"/>
<path d="" fill="#000000" transform="translate(0,0)"/>
<path d="" fill="#000000" transform="translate(0,0)"/>
<path d="" fill="#000000" transform="translate(0,0)"/>
<path d="M0 0 C2 1 2 1 2 1 Z " fill="#090909" transform="translate(133,26)"/>
<path d="" fill="#000000" transform="translate(0,0)"/>
<path d="" fill="#000000" transform="translate(0,0)"/>
<path d="" fill="#000000" transform="translate(0,0)"/>
<path d="" fill="#000000" transform="translate(0,0)"/>
<path d="" fill="#000000" transform="translate(0,0)"/>
<path d="" fill="#000000" transform="translate(0,0)"/>
<path d="" fill="#000000" transform="translate(0,0)"/>
<path d="" fill="#000000" transform="translate(0,0)"/>
<path d="" fill="#000000" transform="translate(0,0)"/>
<path d="" fill="#000000" transform="translate(0,0)"/>
<path d="" fill="#000000" transform="translate(0,0)"/>
<path d="" fill="#000000" transform="translate(0,0)"/>
<path d="" fill="#000000" transform="translate(0,0)"/>
<path d="" fill="#000000" transform="translate(0,0)"/>
<path d="" fill="#000000" transform="translate(0,0)"/>
<path d="" fill="#000000" transform="translate(0,0)"/>
<path d="" fill="#000000" transform="translate(0,0)"/>
<path d="" fill="#000000" transform="translate(0,0)"/>
<path d="" fill="#000000" transform="translate(0,0)"/>
<path d="" fill="#000000" transform="translate(0,0)"/>
<path d="" fill="#000000" transform="translate(0,0)"/>
<path d="" fill="#000000" transform="translate(0,0)"/>
<path d="" fill="#000000" transform="translate(0,0)"/>
<path d="" fill="#000000" transform="translate(0,0)"/>
<path d="" fill="#000000" transform="translate(0,0)"/>
<path d="" fill="#000000" transform="translate(0,0)"/>
<path d="" fill="#000000" transform="translate(0,0)"/>
<path d="" fill="#000000" transform="translate(0,0)"/>
<path d="" fill="#000000" transform="translate(0,0)"/>
<path d="" fill="#000000" transform="translate(0,0)"/>
<path d="" fill="#000000" transform="translate(0,0)"/>
<path d="" fill="#000000" transform="translate(0,0)"/>
<path d="" fill="#000000" transform="translate(0,0)"/>
<path d="" fill="#000000" transform="translate(0,0)"/>
<path d="" fill="#000000" transform="translate(0,0)"/>
<path d="" fill="#000000" transform="translate(0,0)"/>
<path d="" fill="#000000" transform="translate(0,0)"/>
<path d="" fill="#000000" transform="translate(0,0)"/>
<path d="" fill="#000000" transform="translate(0,0)"/>
<path d="" fill="#000000" transform="translate(0,0)"/>
<path d="" fill="#000000" transform="translate(0,0)"/>
<path d="" fill="#000000" transform="translate(0,0)"/>
<path d="" fill="#000000" transform="translate(0,0)"/>
<path d="" fill="#000000" transform="translate(0,0)"/>
<path d="" fill="#000000" transform="translate(0,0)"/>
<path d="" fill="#000000" transform="translate(0,0)"/>
<path d="" fill="#000000" transform="translate(0,0)"/>
<path d="" fill="#000000" transform="translate(0,0)"/>
<path d="" fill="#000000" transform="translate(0,0)"/>
<path d="" fill="#000000" transform="translate(0,0)"/>
<path d="" fill="#000000" transform="translate(0,0)"/>
<path d="" fill="#000000" transform="translate(0,0)"/>
<path d="" fill="#000000" transform="translate(0,0)"/>
<path d="" fill="#000000" transform="translate(0,0)"/>
<path d="" fill="#000000" transform="translate(0,0)"/>
<path d="" fill="#000000" transform="translate(0,0)"/>
<path d="" fill="#000000" transform="translate(0,0)"/>
<path d="" fill="#000000" transform="translate(0,0)"/>
<path d="" fill="#000000" transform="translate(0,0)"/>
<path d="" fill="#000000" transform="translate(0,0)"/>
<path d="" fill="#000000" transform="translate(0,0)"/>
<path d="" fill="#000000" transform="translate(0,0)"/>
<path d="" fill="#000000" transform="translate(0,0)"/>
<path d="" fill="#000000" transform="translate(0,0)"/>
<path d="" fill="#000000" transform="translate(0,0)"/>
<path d="" fill="#000000" transform="translate(0,0)"/>
<path d="" fill="#000000" transform="translate(0,0)"/>
<path d="" fill="#000000" transform="translate(0,0)"/>
<path d="" fill="#000000" transform="translate(0,0)"/>
<path d="" fill="#000000" transform="translate(0,0)"/>
<path d="" fill="#000000" transform="translate(0,0)"/>
<path d="" fill="#000000" transform="translate(0,0)"/>
<path d="" fill="#000000" transform="translate(0,0)"/>
<path d="" fill="#000000" transform="translate(0,0)"/>
<path d="" fill="#000000" transform="translate(0,0)"/>
<path d="" fill="#000000" transform="translate(0,0)"/>
<path d="" fill="#000000" transform="translate(0,0)"/>
<path d="" fill="#000000" transform="translate(0,0)"/>
<path d="" fill="#000000" transform="translate(0,0)"/>
<path d="" fill="#000000" transform="translate(0,0)"/>
<path d="" fill="#000000" transform="translate(0,0)"/>
<path d="" fill="#000000" transform="translate(0,0)"/>
<path d="" fill="#000000" transform="translate(0,0)"/>
<path d="" fill="#000000" transform="translate(0,0)"/>
<path d="" fill="#000000" transform="translate(0,0)"/>
<path d="" fill="#000000" transform="translate(0,0)"/>
<path d="" fill="#000000" transform="translate(0,0)"/>
<path d="" fill="#000000" transform="translate(0,0)"/>
<path d="" fill="#000000" transform="translate(0,0)"/>
<path d="" fill="#000000" transform="translate(0,0)"/>
<path d="" fill="#000000" transform="translate(0,0)"/>
<path d="" fill="#000000" transform="translate(0,0)"/>
<path d="" fill="#000000" transform="translate(0,0)"/>
<path d="" fill="#000000" transform="translate(0,0)"/>
<path d="" fill="#000000" transform="translate(0,0)"/>
<path d="" fill="#000000" transform="translate(0,0)"/>
<path d="" fill="#000000" transform="translate(0,0)"/>
<path d="" fill="#000000" transform="translate(0,0)"/>
<path d="" fill="#000000" transform="translate(0,0)"/>
<path d="" fill="#000000" transform="translate(0,0)"/>
<path d="" fill="#000000" transform="translate(0,0)"/>
<path d="" fill="#000000" transform="translate(0,0)"/>
<path d="" fill="#000000" transform="translate(0,0)"/>
<path d="" fill="#000000" transform="translate(0,0)"/>
<path d="" fill="#000000" transform="translate(0,0)"/>
<path d="" fill="#000000" transform="translate(0,0)"/>
<path d="" fill="#000000" transform="translate(0,0)"/>
<path d="" fill="#000000" transform="translate(0,0)"/>
<path d="" fill="#000000" transform="translate(0,0)"/>
<path d="" fill="#000000" transform="translate(0,0)"/>
<path d="" fill="#000000" transform="translate(0,0)"/>
<path d="" fill="#000000" transform="translate(0,0)"/>
<path d="" fill="#000000" transform="translate(0,0)"/>
<path d="" fill="#000000" transform="translate(0,0)"/>
<path d="" fill="#000000" transform="translate(0,0)"/>
<path d="" fill="#000000" transform="translate(0,0)"/>
<path d="" fill="#000000" transform="translate(0,0)"/>
<path d="" fill="#000000" transform="translate(0,0)"/>
<path d="" fill="#000000" transform="translate(0,0)"/>
<path d="" fill="#000000" transform="translate(0,0)"/>
<path d="" fill="#000000" transform="translate(0,0)"/>
<path d="" fill="#000000" transform="translate(0,0)"/>
<path d="" fill="#000000" transform="translate(0,0)"/>
<path d="" fill="#000000" transform="translate(0,0)"/>
<path d="" fill="#000000" transform="translate(0,0)"/>
<path d="" fill="#000000" transform="translate(0,0)"/>
<path d="" fill="#000000" transform="translate(0,0)"/>
<path d="" fill="#000000" transform="translate(0,0)"/>
<path d="" fill="#000000" transform="translate(0,0)"/>
<path d="" fill="#000000" transform="translate(0,0)"/>
<path d="" fill="#000000" transform="translate(0,0)"/>
<path d="" fill="#000000" transform="translate(0,0)"/>
<path d="" fill="#000000" transform="translate(0,0)"/>
<path d="" fill="#000000" transform="translate(0,0)"/>
<path d="" fill="#000000" transform="translate(0,0)"/>
<path d="" fill="#000000" transform="translate(0,0)"/>
<path d="" fill="#000000" transform="translate(0,0)"/>
<path d="" fill="#000000" transform="translate(0,0)"/>
<path d="" fill="#000000" transform="translate(0,0)"/>
<path d="" fill="#000000" transform="translate(0,0)"/>
<path d="" fill="#000000" transform="translate(0,0)"/>
<path d="" fill="#000000" transform="translate(0,0)"/>
<path d="" fill="#000000" transform="translate(0,0)"/>
<path d="" fill="#000000" transform="translate(0,0)"/>
<path d="" fill="#000000" transform="translate(0,0)"/>
<path d="" fill="#000000" transform="translate(0,0)"/>
<path d="" fill="#000000" transform="translate(0,0)"/>
<path d="" fill="#000000" transform="translate(0,0)"/>
<path d="" fill="#000000" transform="translate(0,0)"/>
<path d="" fill="#000000" transform="translate(0,0)"/>
<path d="" fill="#000000" transform="translate(0,0)"/>
<path d="" fill="#000000" transform="translate(0,0)"/>
<path d="" fill="#000000" transform="translate(0,0)"/>
<path d="" fill="#000000" transform="translate(0,0)"/>
<path d="" fill="#000000" transform="translate(0,0)"/>
<path d="" fill="#000000" transform="translate(0,0)"/>
<path d="" fill="#000000" transform="translate(0,0)"/>
<path d="" fill="#000000" transform="translate(0,0)"/>
<path d="" fill="#000000" transform="translate(0,0)"/>
<path d="" fill="#000000" transform="translate(0,0)"/>
<path d="" fill="#000000" transform="translate(0,0)"/>
<path d="" fill="#000000" transform="translate(0,0)"/>
<path d="" fill="#000000" transform="translate(0,0)"/>
<path d="" fill="#000000" transform="translate(0,0)"/>
<path d="" fill="#000000" transform="translate(0,0)"/>
<path d="" fill="#000000" transform="translate(0,0)"/>
<path d="" fill="#000000" transform="translate(0,0)"/>
<path d="" fill="#000000" transform="translate(0,0)"/>
<path d="" fill="#000000" transform="translate(0,0)"/>
<path d="" fill="#000000" transform="translate(0,0)"/>
<path d="" fill="#000000" transform="translate(0,0)"/>
<path d="" fill="#000000" transform="translate(0,0)"/>
<path d="" fill="#000000" transform="translate(0,0)"/>
<path d="" fill="#000000" transform="translate(0,0)"/>
<path d="" fill="#000000" transform="translate(0,0)"/>
<path d="" fill="#000000" transform="translate(0,0)"/>
<path d="" fill="#000000" transform="translate(0,0)"/>
<path d="" fill="#000000" transform="translate(0,0)"/>
<path d="" fill="#000000" transform="translate(0,0)"/>
<path d="" fill="#000000" transform="translate(0,0)"/>
<path d="" fill="#000000" transform="translate(0,0)"/>
<path d="" fill="#000000" transform="translate(0,0)"/>
<path d="" fill="#000000" transform="translate(0,0)"/>
<path d="" fill="#000000" transform="translate(0,0)"/>
<path d="" fill="#000000" transform="translate(0,0)"/>
<path d="" fill="#000000" transform="translate(0,0)"/>
<path d="" fill="#000000" transform="translate(0,0)"/>
<path d="" fill="#000000" transform="translate(0,0)"/>
<path d="" fill="#000000" transform="translate(0,0)"/>
<path d="" fill="#000000" transform="translate(0,0)"/>
<path d="" fill="#000000" transform="translate(0,0)"/>
<path d="" fill="#000000" transform="translate(0,0)"/>
<path d="" fill="#000000" transform="translate(0,0)"/>
<path d="" fill="#000000" transform="translate(0,0)"/>
<path d="" fill="#000000" transform="translate(0,0)"/>
<path d="" fill="#000000" transform="translate(0,0)"/>
<path d="" fill="#000000" transform="translate(0,0)"/>
<path d="" fill="#000000" transform="translate(0,0)"/>
</svg>
